<?xml version="1.0" encoding="utf-8"?>
<!-- Generator: Adobe Illustrator 16.0.0, SVG Export Plug-In . SVG Version: 6.00 Build 0)  -->
<!DOCTYPE svg PUBLIC "-//W3C//DTD SVG 1.1//EN" "http://www.w3.org/Graphics/SVG/1.1/DTD/svg11.dtd">
<svg version="1.1" xmlns="http://www.w3.org/2000/svg" xmlns:xlink="http://www.w3.org/1999/xlink" x="0px" y="0px" width="30px"
	 height="30px" viewBox="0 0 30 30" enable-background="new 0 0 30 30" xml:space="preserve">
<g id="Layer_2">
</g>
<g id="Layer_3">
</g>
<g id="Layer_1">
	
		<radialGradient id="SVGID_1_" cx="-45.9697" cy="-9.0635" r="3.1544" gradientTransform="matrix(1.0502 0 0 1.0537 72.1343 33.9968)" gradientUnits="userSpaceOnUse">
		<stop  offset="0" style="stop-color:#52A7FF"/>
		<stop  offset="1" style="stop-color:#0265CB"/>
	</radialGradient>
	
		<ellipse fill="url(#SVGID_1_)" stroke="#282828" stroke-width="1.0356" stroke-miterlimit="10" cx="25.097" cy="25.176" rx="3.313" ry="3.324"/>
	
		<line fill="none" stroke="#E6E6E6" stroke-linecap="round" stroke-miterlimit="10" x1="13.109" y1="13.152" x2="21.783" y2="21.854"/>
	
		<line fill="none" stroke="#E6E6E6" stroke-linecap="round" stroke-miterlimit="10" x1="18.807" y1="15.541" x2="23.992" y2="20.745"/>
	
		<line fill="none" stroke="#E6E6E6" stroke-linecap="round" stroke-miterlimit="10" x1="15.492" y1="18.866" x2="20.678" y2="24.069"/>
	<g>
		<g>
			<path fill="#2E81DA" d="M3.224,20.003c-0.384,0-0.768-0.146-1.061-0.439c-0.586-0.586-0.586-1.535,0-2.121L17.024,2.581
				c0.586-0.586,1.535-0.586,2.121,0s0.586,1.535,0,2.121L4.284,19.563C3.991,19.856,3.607,20.003,3.224,20.003z"/>
		</g>
		<g>
			<path fill="#2E81DA" d="M3.224,20.003c-0.384,0-0.768-0.146-1.061-0.439c-0.586-0.586-0.586-1.535,0-2.121L17.024,2.581
				c0.586-0.586,1.535-0.586,2.121,0s0.586,1.535,0,2.121L4.284,19.563C3.991,19.856,3.607,20.003,3.224,20.003z"/>
		</g>
		<g>
			<path fill="none" stroke="#282828" stroke-miterlimit="10" d="M3.224,20.003c-0.384,0-0.768-0.146-1.061-0.439
				c-0.586-0.586-0.586-1.535,0-2.121L17.024,2.581c0.586-0.586,1.535-0.586,2.121,0s0.586,1.535,0,2.121L4.284,19.563
				C3.991,19.856,3.607,20.003,3.224,20.003z"/>
		</g>
	</g>
</g>
</svg>
