<?xml version="1.0" encoding="utf-8"?>
<!-- Generator: Adobe Illustrator 16.0.0, SVG Export Plug-In . SVG Version: 6.00 Build 0)  -->
<!DOCTYPE svg PUBLIC "-//W3C//DTD SVG 1.1//EN" "http://www.w3.org/Graphics/SVG/1.1/DTD/svg11.dtd">
<svg version="1.1" xmlns="http://www.w3.org/2000/svg" xmlns:xlink="http://www.w3.org/1999/xlink" x="0px" y="0px" width="30px"
	 height="30px" viewBox="0 0 30 30" enable-background="new 0 0 30 30" xml:space="preserve">
<g id="Layer_2">
</g>
<g id="Layer_3">
</g>
<g id="Layer_1">
	<g>
		<path fill="#0265CB" stroke="#282828" stroke-miterlimit="10" d="M20.655,10.926c0,5.201-4.203,9.426-9.396,9.426
			c-5.182,0-9.395-4.225-9.395-9.426c0-5.203,4.213-9.426,9.395-9.426C16.452,1.5,20.655,5.723,20.655,10.926z"/>
		
			<radialGradient id="SVGID_1_" cx="-33.0508" cy="-8.8447" r="3.1217" gradientTransform="matrix(1.0502 0 0 1.0537 58.7183 33.9968)" gradientUnits="userSpaceOnUse">
			<stop  offset="0" style="stop-color:#52A7FF"/>
			<stop  offset="1" style="stop-color:#0265CB"/>
		</radialGradient>
		<path fill="url(#SVGID_1_)" stroke="#282828" stroke-miterlimit="10" d="M28.136,25.209c0,1.818-1.469,3.291-3.279,3.291
			s-3.277-1.473-3.277-3.291c0-1.814,1.467-3.287,3.277-3.287S28.136,23.395,28.136,25.209z"/>
		
			<line fill="none" stroke="#E6E6E6" stroke-linecap="round" stroke-miterlimit="10" x1="12.995" y1="13.311" x2="21.579" y2="21.922"/>
		
			<line fill="none" stroke="#E6E6E6" stroke-linecap="round" stroke-miterlimit="10" x1="18.632" y1="15.675" x2="23.763" y2="20.826"/>
		
			<line fill="none" stroke="#E6E6E6" stroke-linecap="round" stroke-miterlimit="10" x1="15.351" y1="18.965" x2="20.485" y2="24.115"/>
	</g>
</g>
</svg>
