{"asset":{"version":"2.0","generator":"babylon.js glTF exporter for Autodesk Maya 2018.7 v20240312.5"},"scene":0,"scenes":[{"nodes":[0,14]}],"nodes":[{"children":[1,2,3,4,5,6,7,8,9,10,11,12,13],"name":"Geo"},{"skin":0,"mesh":0,"name":"Mesh_Wheel_Inner_LF"},{"skin":1,"mesh":1,"name":"Mesh_Wheel_Inner_LB"},{"skin":2,"mesh":2,"name":"Mesh_Wheel_Inner_RB"},{"skin":3,"mesh":3,"name":"Mesh_Wheel_Inner_RF"},{"skin":4,"mesh":4,"name":"Mesh_Joint_LF"},{"skin":5,"mesh":5,"name":"Mesh_Joint_RF"},{"skin":6,"mesh":6,"name":"Mesh_Joint_LB"},{"skin":7,"mesh":7,"name":"Mesh_Joint_RB"},{"skin":8,"mesh":8,"name":"Wheel_LF"},{"skin":9,"mesh":9,"name":"Wheel_RF"},{"skin":10,"mesh":10,"name":"Wheel_LB"},{"skin":11,"mesh":11,"name":"Wheel_RB"},{"skin":12,"mesh":12,"name":"Mesh_Body"},{"children":[15,17,19,21],"translation":[-8.71028547E-18,0.8084813,1.20134426E-17],"rotation":[-0.112277634,-0.584230959,0.151695386,0.789339244],"name":"Root"},{"children":[16],"translation":[1.66533554,-1.02936,-7.59535873E-16],"rotation":[0.112277634,0.584230959,-0.1516954,0.789339244],"scale":[1.0,0.99999994,1.0],"name":"LF1"},{"translation":[0.3637961,-2.44980556E-17,-1.84734127E-16],"rotation":[0.0,-0.7071067,0.0,0.7071068],"scale":[0.99999994,1.0,0.99999994],"name":"LF2"},{"children":[18],"translation":[-1.3792628,0.18574068,-1.00133669],"rotation":[0.112277634,0.584230959,-0.1516954,0.789339244],"scale":[1.0,0.99999994,1.0],"name":"LB1"},{"translation":[0.3637961,-2.44980556E-17,-1.84734127E-16],"rotation":[0.0,-0.7071067,0.0,0.7071068],"scale":[0.99999994,1.0,0.99999994],"name":"LB2"},{"children":[20],"translation":[-1.684946,0.3077392,0.0761421248],"rotation":[0.112277634,0.584230959,-0.1516954,0.789339244],"scale":[1.0,0.99999994,1.0],"name":"RB1"},{"translation":[-0.363796,2.842171E-16,0.0],"rotation":[0.0,-0.7071067,0.0,0.7071068],"scale":[0.99999994,1.0,0.99999994],"name":"RB2"},{"children":[22],"translation":[1.3596524,-0.9073615,1.07747877],"rotation":[0.112277634,0.584230959,-0.1516954,0.789339244],"scale":[1.0,0.99999994,1.0],"name":"RF1"},{"translation":[-0.363796,2.842171E-16,0.0],"rotation":[0.0,-0.7071067,0.0,0.7071068],"scale":[0.99999994,1.0,0.99999994],"name":"RF2"}],"meshes":[{"primitives":[{"attributes":{"POSITION":1,"TANGENT":2,"NORMAL":3,"TEXCOORD_0":4,"JOINTS_0":5,"WEIGHTS_0":6},"indices":0,"material":0}],"name":"Mesh_Wheel_Inner_LF"},{"primitives":[{"attributes":{"POSITION":8,"TANGENT":9,"NORMAL":10,"TEXCOORD_0":11,"JOINTS_0":12,"WEIGHTS_0":13},"indices":7,"material":0}],"name":"Mesh_Wheel_Inner_LB"},{"primitives":[{"attributes":{"POSITION":15,"TANGENT":16,"NORMAL":17,"TEXCOORD_0":18,"JOINTS_0":19,"WEIGHTS_0":20},"indices":14,"material":0}],"name":"Mesh_Wheel_Inner_RB"},{"primitives":[{"attributes":{"POSITION":22,"TANGENT":23,"NORMAL":24,"TEXCOORD_0":25,"JOINTS_0":26,"WEIGHTS_0":27},"indices":21,"material":0}],"name":"Mesh_Wheel_Inner_RF"},{"primitives":[{"attributes":{"POSITION":29,"TANGENT":30,"NORMAL":31,"TEXCOORD_0":32,"JOINTS_0":33,"WEIGHTS_0":34},"indices":28,"material":0},{"attributes":{"POSITION":36,"TANGENT":37,"NORMAL":38,"TEXCOORD_0":39,"JOINTS_0":40,"WEIGHTS_0":41},"indices":35,"material":1}],"name":"Mesh_Joint_LF"},{"primitives":[{"attributes":{"POSITION":43,"TANGENT":44,"NORMAL":45,"TEXCOORD_0":46,"JOINTS_0":47,"WEIGHTS_0":48},"indices":42,"material":0},{"attributes":{"POSITION":50,"TANGENT":51,"NORMAL":52,"TEXCOORD_0":53,"JOINTS_0":54,"WEIGHTS_0":55},"indices":49,"material":1}],"name":"Mesh_Joint_RF"},{"primitives":[{"attributes":{"POSITION":57,"TANGENT":58,"NORMAL":59,"TEXCOORD_0":60,"JOINTS_0":61,"WEIGHTS_0":62},"indices":56,"material":0},{"attributes":{"POSITION":64,"TANGENT":65,"NORMAL":66,"TEXCOORD_0":67,"JOINTS_0":68,"WEIGHTS_0":69},"indices":63,"material":1}],"name":"Mesh_Joint_LB"},{"primitives":[{"attributes":{"POSITION":71,"TANGENT":72,"NORMAL":73,"TEXCOORD_0":74,"JOINTS_0":75,"WEIGHTS_0":76},"indices":70,"material":0},{"attributes":{"POSITION":78,"TANGENT":79,"NORMAL":80,"TEXCOORD_0":81,"JOINTS_0":82,"WEIGHTS_0":83},"indices":77,"material":1}],"name":"Mesh_Joint_RB"},{"primitives":[{"attributes":{"POSITION":85,"TANGENT":86,"NORMAL":87,"TEXCOORD_0":88,"JOINTS_0":89,"WEIGHTS_0":90},"indices":84,"material":1}],"name":"Wheel_LF"},{"primitives":[{"attributes":{"POSITION":92,"TANGENT":93,"NORMAL":94,"TEXCOORD_0":95,"JOINTS_0":96,"WEIGHTS_0":97},"indices":91,"material":1}],"name":"Wheel_RF"},{"primitives":[{"attributes":{"POSITION":99,"TANGENT":100,"NORMAL":101,"TEXCOORD_0":102,"JOINTS_0":103,"WEIGHTS_0":104},"indices":98,"material":1}],"name":"Wheel_LB"},{"primitives":[{"attributes":{"POSITION":106,"TANGENT":107,"NORMAL":108,"TEXCOORD_0":109,"JOINTS_0":110,"WEIGHTS_0":111},"indices":105,"material":1}],"name":"Wheel_RB"},{"primitives":[{"attributes":{"POSITION":113,"TANGENT":114,"NORMAL":115,"TEXCOORD_0":116,"JOINTS_0":117,"WEIGHTS_0":118},"indices":112,"material":2},{"attributes":{"POSITION":120,"TANGENT":121,"NORMAL":122,"TEXCOORD_0":123,"JOINTS_0":124,"WEIGHTS_0":125},"indices":119,"material":1}],"name":"Mesh_Body"}],"accessors":[{"bufferView":0,"componentType":5123,"count":6408,"type":"SCALAR","name":"accessorIndices"},{"bufferView":1,"componentType":5126,"count":1735,"max":[1.00867236,0.578741,1.95321143],"min":[0.6848056,0.3606012,1.735071],"type":"VEC3","name":"accessorPositions"},{"bufferView":2,"componentType":5126,"count":1735,"type":"VEC4","name":"accessorTangents"},{"bufferView":1,"byteOffset":20820,"componentType":5126,"count":1735,"type":"VEC3","name":"accessorNormals"},{"bufferView":3,"componentType":5126,"count":1735,"type":"VEC2","name":"accessorUVs"},{"bufferView":4,"componentType":5123,"count":1735,"type":"VEC4","name":"accessorJoints"},{"bufferView":2,"byteOffset":27760,"componentType":5126,"count":1735,"type":"VEC4","name":"accessorWeights"},{"bufferView":0,"byteOffset":12816,"componentType":5123,"count":6408,"type":"SCALAR","name":"accessorIndices"},{"bufferView":1,"byteOffset":41640,"componentType":5126,"count":1735,"max":[1.0086726,0.5787408,-1.47427034],"min":[0.6848056,0.3606009,-1.69241083],"type":"VEC3","name":"accessorPositions"},{"bufferView":2,"byteOffset":55520,"componentType":5126,"count":1735,"type":"VEC4","name":"accessorTangents"},{"bufferView":1,"byteOffset":62460,"componentType":5126,"count":1735,"type":"VEC3","name":"accessorNormals"},{"bufferView":3,"byteOffset":13880,"componentType":5126,"count":1735,"type":"VEC2","name":"accessorUVs"},{"bufferView":4,"byteOffset":13880,"componentType":5123,"count":1735,"type":"VEC4","name":"accessorJoints"},{"bufferView":2,"byteOffset":83280,"componentType":5126,"count":1735,"type":"VEC4","name":"accessorWeights"},{"bufferView":0,"byteOffset":25632,"componentType":5123,"count":6408,"type":"SCALAR","name":"accessorIndices"},{"bufferView":1,"byteOffset":83280,"componentType":5126,"count":1735,"max":[-0.6848056,0.5787408,-1.47427034],"min":[-1.0086726,0.3606009,-1.69241083],"type":"VEC3","name":"accessorPositions"},{"bufferView":2,"byteOffset":111040,"componentType":5126,"count":1735,"type":"VEC4","name":"accessorTangents"},{"bufferView":1,"byteOffset":104100,"componentType":5126,"count":1735,"type":"VEC3","name":"accessorNormals"},{"bufferView":3,"byteOffset":27760,"componentType":5126,"count":1735,"type":"VEC2","name":"accessorUVs"},{"bufferView":4,"byteOffset":27760,"componentType":5123,"count":1735,"type":"VEC4","name":"accessorJoints"},{"bufferView":2,"byteOffset":138800,"componentType":5126,"count":1735,"type":"VEC4","name":"accessorWeights"},{"bufferView":0,"byteOffset":38448,"componentType":5123,"count":6408,"type":"SCALAR","name":"accessorIndices"},{"bufferView":1,"byteOffset":124920,"componentType":5126,"count":1735,"max":[-0.6848056,0.578741,1.95321143],"min":[-1.0086726,0.3606012,1.735071],"type":"VEC3","name":"accessorPositions"},{"bufferView":2,"byteOffset":166560,"componentType":5126,"count":1735,"type":"VEC4","name":"accessorTangents"},{"bufferView":1,"byteOffset":145740,"componentType":5126,"count":1735,"type":"VEC3","name":"accessorNormals"},{"bufferView":3,"byteOffset":41640,"componentType":5126,"count":1735,"type":"VEC2","name":"accessorUVs"},{"bufferView":4,"byteOffset":41640,"componentType":5123,"count":1735,"type":"VEC4","name":"accessorJoints"},{"bufferView":2,"byteOffset":194320,"componentType":5126,"count":1735,"type":"VEC4","name":"accessorWeights"},{"bufferView":0,"byteOffset":51264,"componentType":5123,"count":1872,"type":"SCALAR","name":"accessorIndices"},{"bufferView":1,"byteOffset":166560,"componentType":5126,"count":583,"max":[0.8773208,0.5562685,1.90862656],"min":[0.498828351,0.3840227,1.77965689],"type":"VEC3","name":"accessorPositions"},{"bufferView":2,"byteOffset":222080,"componentType":5126,"count":583,"type":"VEC4","name":"accessorTangents"},{"bufferView":1,"byteOffset":173556,"componentType":5126,"count":583,"type":"VEC3","name":"accessorNormals"},{"bufferView":3,"byteOffset":55520,"componentType":5126,"count":583,"type":"VEC2","name":"accessorUVs"},{"bufferView":4,"byteOffset":55520,"componentType":5123,"count":583,"type":"VEC4","name":"accessorJoints"},{"bufferView":2,"byteOffset":231408,"componentType":5126,"count":583,"type":"VEC4","name":"accessorWeights"},{"bufferView":0,"byteOffset":55008,"componentType":5123,"count":8340,"type":"SCALAR","name":"accessorIndices"},{"bufferView":1,"byteOffset":180552,"componentType":5126,"count":2933,"max":[0.9880856,0.612302244,1.72698164],"min":[0.884672046,0.3231584,1.55926847],"type":"VEC3","name":"accessorPositions"},{"bufferView":2,"byteOffset":240736,"componentType":5126,"count":2933,"type":"VEC4","name":"accessorTangents"},{"bufferView":1,"byteOffset":215748,"componentType":5126,"count":2933,"type":"VEC3","name":"accessorNormals"},{"bufferView":3,"byteOffset":60184,"componentType":5126,"count":2933,"type":"VEC2","name":"accessorUVs"},{"bufferView":4,"byteOffset":60184,"componentType":5123,"count":2933,"type":"VEC4","name":"accessorJoints"},{"bufferView":2,"byteOffset":287664,"componentType":5126,"count":2933,"type":"VEC4","name":"accessorWeights"},{"bufferView":0,"byteOffset":71688,"componentType":5123,"count":1872,"type":"SCALAR","name":"accessorIndices"},{"bufferView":1,"byteOffset":250944,"componentType":5126,"count":584,"max":[-0.498828351,0.5562685,1.90862656],"min":[-0.8773208,0.3840227,1.77965689],"type":"VEC3","name":"accessorPositions"},{"bufferView":2,"byteOffset":334592,"componentType":5126,"count":584,"type":"VEC4","name":"accessorTangents"},{"bufferView":1,"byteOffset":257952,"componentType":5126,"count":584,"type":"VEC3","name":"accessorNormals"},{"bufferView":3,"byteOffset":83648,"componentType":5126,"count":584,"type":"VEC2","name":"accessorUVs"},{"bufferView":4,"byteOffset":83648,"componentType":5123,"count":584,"type":"VEC4","name":"accessorJoints"},{"bufferView":2,"byteOffset":343936,"componentType":5126,"count":584,"type":"VEC4","name":"accessorWeights"},{"bufferView":0,"byteOffset":75432,"componentType":5123,"count":8340,"type":"SCALAR","name":"accessorIndices"},{"bufferView":1,"byteOffset":264960,"componentType":5126,"count":2933,"max":[-0.884672046,0.612302244,1.72698164],"min":[-0.9880856,0.3231584,1.55926847],"type":"VEC3","name":"accessorPositions"},{"bufferView":2,"byteOffset":353280,"componentType":5126,"count":2933,"type":"VEC4","name":"accessorTangents"},{"bufferView":1,"byteOffset":300156,"componentType":5126,"count":2933,"type":"VEC3","name":"accessorNormals"},{"bufferView":3,"byteOffset":88320,"componentType":5126,"count":2933,"type":"VEC2","name":"accessorUVs"},{"bufferView":4,"byteOffset":88320,"componentType":5123,"count":2933,"type":"VEC4","name":"accessorJoints"},{"bufferView":2,"byteOffset":400208,"componentType":5126,"count":2933,"type":"VEC4","name":"accessorWeights"},{"bufferView":0,"byteOffset":92112,"componentType":5123,"count":1872,"type":"SCALAR","name":"accessorIndices"},{"bufferView":1,"byteOffset":335352,"componentType":5126,"count":615,"max":[0.891178548,0.5562685,-1.51888525],"min":[0.5126863,0.3840227,-1.64785457],"type":"VEC3","name":"accessorPositions"},{"bufferView":2,"byteOffset":447136,"componentType":5126,"count":615,"type":"VEC4","name":"accessorTangents"},{"bufferView":1,"byteOffset":342732,"componentType":5126,"count":615,"type":"VEC3","name":"accessorNormals"},{"bufferView":3,"byteOffset":111784,"componentType":5126,"count":615,"type":"VEC2","name":"accessorUVs"},{"bufferView":4,"byteOffset":111784,"componentType":5123,"count":615,"type":"VEC4","name":"accessorJoints"},{"bufferView":2,"byteOffset":456976,"componentType":5126,"count":615,"type":"VEC4","name":"accessorWeights"},{"bufferView":0,"byteOffset":95856,"componentType":5123,"count":8340,"type":"SCALAR","name":"accessorIndices"},{"bufferView":1,"byteOffset":350112,"componentType":5126,"count":2933,"max":[0.979173839,0.612302244,-1.70065963],"min":[0.8757603,0.3231584,-1.8683728],"type":"VEC3","name":"accessorPositions"},{"bufferView":2,"byteOffset":466816,"componentType":5126,"count":2933,"type":"VEC4","name":"accessorTangents"},{"bufferView":1,"byteOffset":385308,"componentType":5126,"count":2933,"type":"VEC3","name":"accessorNormals"},{"bufferView":3,"byteOffset":116704,"componentType":5126,"count":2933,"type":"VEC2","name":"accessorUVs"},{"bufferView":4,"byteOffset":116704,"componentType":5123,"count":2933,"type":"VEC4","name":"accessorJoints"},{"bufferView":2,"byteOffset":513744,"componentType":5126,"count":2933,"type":"VEC4","name":"accessorWeights"},{"bufferView":0,"byteOffset":112536,"componentType":5123,"count":1872,"type":"SCALAR","name":"accessorIndices"},{"bufferView":1,"byteOffset":420504,"componentType":5126,"count":615,"max":[-0.5126863,0.5562685,-1.51888525],"min":[-0.891178548,0.3840227,-1.64785457],"type":"VEC3","name":"accessorPositions"},{"bufferView":2,"byteOffset":560672,"componentType":5126,"count":615,"type":"VEC4","name":"accessorTangents"},{"bufferView":1,"byteOffset":427884,"componentType":5126,"count":615,"type":"VEC3","name":"accessorNormals"},{"bufferView":3,"byteOffset":140168,"componentType":5126,"count":615,"type":"VEC2","name":"accessorUVs"},{"bufferView":4,"byteOffset":140168,"componentType":5123,"count":615,"type":"VEC4","name":"accessorJoints"},{"bufferView":2,"byteOffset":570512,"componentType":5126,"count":615,"type":"VEC4","name":"accessorWeights"},{"bufferView":0,"byteOffset":116280,"componentType":5123,"count":8340,"type":"SCALAR","name":"accessorIndices"},{"bufferView":1,"byteOffset":435264,"componentType":5126,"count":2933,"max":[-0.8757603,0.612302244,-1.70065963],"min":[-0.979173839,0.3231584,-1.8683728],"type":"VEC3","name":"accessorPositions"},{"bufferView":2,"byteOffset":580352,"componentType":5126,"count":2933,"type":"VEC4","name":"accessorTangents"},{"bufferView":1,"byteOffset":470460,"componentType":5126,"count":2933,"type":"VEC3","name":"accessorNormals"},{"bufferView":3,"byteOffset":145088,"componentType":5126,"count":2933,"type":"VEC2","name":"accessorUVs"},{"bufferView":4,"byteOffset":145088,"componentType":5123,"count":2933,"type":"VEC4","name":"accessorJoints"},{"bufferView":2,"byteOffset":627280,"componentType":5126,"count":2933,"type":"VEC4","name":"accessorWeights"},{"bufferView":0,"byteOffset":132960,"componentType":5123,"count":115422,"type":"SCALAR","name":"accessorIndices"},{"bufferView":1,"byteOffset":505656,"componentType":5126,"count":28957,"max":[1.12769151,0.9214247,2.29582834],"min":[0.7731032,0.0180527866,1.39245379],"type":"VEC3","name":"accessorPositions"},{"bufferView":2,"byteOffset":674208,"componentType":5126,"count":28957,"type":"VEC4","name":"accessorTangents"},{"bufferView":1,"byteOffset":853140,"componentType":5126,"count":28957,"type":"VEC3","name":"accessorNormals"},{"bufferView":3,"byteOffset":168552,"componentType":5126,"count":28957,"type":"VEC2","name":"accessorUVs"},{"bufferView":4,"byteOffset":168552,"componentType":5123,"count":28957,"type":"VEC4","name":"accessorJoints"},{"bufferView":2,"byteOffset":1137520,"componentType":5126,"count":28957,"type":"VEC4","name":"accessorWeights"},{"bufferView":0,"byteOffset":363804,"componentType":5123,"count":115422,"type":"SCALAR","name":"accessorIndices"},{"bufferView":1,"byteOffset":1200624,"componentType":5126,"count":28937,"max":[-0.7731032,0.9214247,2.29582834],"min":[-1.12769151,0.0180527866,1.39245379],"type":"VEC3","name":"accessorPositions"},{"bufferView":2,"byteOffset":1600832,"componentType":5126,"count":28937,"type":"VEC4","name":"accessorTangents"},{"bufferView":1,"byteOffset":1547868,"componentType":5126,"count":28937,"type":"VEC3","name":"accessorNormals"},{"bufferView":3,"byteOffset":400208,"componentType":5126,"count":28937,"type":"VEC2","name":"accessorUVs"},{"bufferView":4,"byteOffset":400208,"componentType":5123,"count":28937,"type":"VEC4","name":"accessorJoints"},{"bufferView":2,"byteOffset":2063824,"componentType":5126,"count":28937,"type":"VEC4","name":"accessorWeights"},{"bufferView":0,"byteOffset":594648,"componentType":5123,"count":115422,"type":"SCALAR","name":"accessorIndices"},{"bufferView":1,"byteOffset":1895112,"componentType":5126,"count":28948,"max":[1.11877978,0.9214247,-1.13181293],"min":[0.764191449,0.0180527866,-2.03518748],"type":"VEC3","name":"accessorPositions"},{"bufferView":2,"byteOffset":2526816,"componentType":5126,"count":28948,"type":"VEC4","name":"accessorTangents"},{"bufferView":1,"byteOffset":2242488,"componentType":5126,"count":28948,"type":"VEC3","name":"accessorNormals"},{"bufferView":3,"byteOffset":631704,"componentType":5126,"count":28948,"type":"VEC2","name":"accessorUVs"},{"bufferView":4,"byteOffset":631704,"componentType":5123,"count":28948,"type":"VEC4","name":"accessorJoints"},{"bufferView":2,"byteOffset":2989984,"componentType":5126,"count":28948,"type":"VEC4","name":"accessorWeights"},{"bufferView":0,"byteOffset":825492,"componentType":5123,"count":115422,"type":"SCALAR","name":"accessorIndices"},{"bufferView":1,"byteOffset":2589864,"componentType":5126,"count":28933,"max":[-0.764191449,0.9214247,-1.13181293],"min":[-1.11877978,0.0180527866,-2.03518748],"type":"VEC3","name":"accessorPositions"},{"bufferView":2,"byteOffset":3453152,"componentType":5126,"count":28933,"type":"VEC4","name":"accessorTangents"},{"bufferView":1,"byteOffset":2937060,"componentType":5126,"count":28933,"type":"VEC3","name":"accessorNormals"},{"bufferView":3,"byteOffset":863288,"componentType":5126,"count":28933,"type":"VEC2","name":"accessorUVs"},{"bufferView":4,"byteOffset":863288,"componentType":5123,"count":28933,"type":"VEC4","name":"accessorJoints"},{"bufferView":2,"byteOffset":3916080,"componentType":5126,"count":28933,"type":"VEC4","name":"accessorWeights"},{"bufferView":0,"byteOffset":1056336,"componentType":5125,"count":400323,"type":"SCALAR","name":"accessorIndices"},{"bufferView":1,"byteOffset":3284256,"componentType":5126,"count":101760,"max":[0.898970842,1.53775156,2.28753972],"min":[-0.898970842,0.4287648,-2.3064518],"type":"VEC3","name":"accessorPositions"},{"bufferView":2,"byteOffset":4379008,"componentType":5126,"count":101760,"type":"VEC4","name":"accessorTangents"},{"bufferView":1,"byteOffset":4505376,"componentType":5126,"count":101760,"type":"VEC3","name":"accessorNormals"},{"bufferView":3,"byteOffset":1094752,"componentType":5126,"count":101760,"type":"VEC2","name":"accessorUVs"},{"bufferView":4,"byteOffset":1094752,"componentType":5123,"count":101760,"type":"VEC4","name":"accessorJoints"},{"bufferView":2,"byteOffset":6007168,"componentType":5126,"count":101760,"type":"VEC4","name":"accessorWeights"},{"bufferView":0,"byteOffset":2657628,"componentType":5125,"count":19776,"type":"SCALAR","name":"accessorIndices"},{"bufferView":1,"byteOffset":5726496,"componentType":5126,"count":4772,"max":[0.643842757,0.7695686,1.91081345],"min":[-0.6438426,0.309928954,-1.65004265],"type":"VEC3","name":"accessorPositions"},{"bufferView":2,"byteOffset":7635328,"componentType":5126,"count":4772,"type":"VEC4","name":"accessorTangents"},{"bufferView":1,"byteOffset":5783760,"componentType":5126,"count":4772,"type":"VEC3","name":"accessorNormals"},{"bufferView":3,"byteOffset":1908832,"componentType":5126,"count":4772,"type":"VEC2","name":"accessorUVs"},{"bufferView":4,"byteOffset":1908832,"componentType":5123,"count":4772,"type":"VEC4","name":"accessorJoints"},{"bufferView":2,"byteOffset":7711680,"componentType":5126,"count":4772,"type":"VEC4","name":"accessorWeights"},{"bufferView":5,"componentType":5126,"count":3,"type":"MAT4","name":"accessorInverseBindMatrices"},{"bufferView":5,"byteOffset":192,"componentType":5126,"count":3,"type":"MAT4","name":"accessorInverseBindMatrices"},{"bufferView":5,"byteOffset":384,"componentType":5126,"count":3,"type":"MAT4","name":"accessorInverseBindMatrices"},{"bufferView":5,"byteOffset":576,"componentType":5126,"count":3,"type":"MAT4","name":"accessorInverseBindMatrices"},{"bufferView":5,"byteOffset":768,"componentType":5126,"count":2,"type":"MAT4","name":"accessorInverseBindMatrices"},{"bufferView":5,"byteOffset":896,"componentType":5126,"count":2,"type":"MAT4","name":"accessorInverseBindMatrices"},{"bufferView":5,"byteOffset":1024,"componentType":5126,"count":2,"type":"MAT4","name":"accessorInverseBindMatrices"},{"bufferView":5,"byteOffset":1152,"componentType":5126,"count":2,"type":"MAT4","name":"accessorInverseBindMatrices"},{"bufferView":5,"byteOffset":1280,"componentType":5126,"count":3,"type":"MAT4","name":"accessorInverseBindMatrices"},{"bufferView":5,"byteOffset":1472,"componentType":5126,"count":3,"type":"MAT4","name":"accessorInverseBindMatrices"},{"bufferView":5,"byteOffset":1664,"componentType":5126,"count":3,"type":"MAT4","name":"accessorInverseBindMatrices"},{"bufferView":5,"byteOffset":1856,"componentType":5126,"count":3,"type":"MAT4","name":"accessorInverseBindMatrices"},{"bufferView":5,"byteOffset":2048,"componentType":5126,"count":1,"type":"MAT4","name":"accessorInverseBindMatrices"}],"bufferViews":[{"buffer":0,"byteLength":2736732,"name":"bufferViewScalar"},{"buffer":0,"byteOffset":2736732,"byteLength":5841024,"byteStride":12,"name":"bufferViewFloatVec3"},{"buffer":0,"byteOffset":8577756,"byteLength":7788032,"byteStride":16,"name":"bufferViewFloatVec4"},{"buffer":0,"byteOffset":16365788,"byteLength":1947008,"byteStride":8,"name":"bufferViewFloatVec2"},{"buffer":0,"byteOffset":18312796,"byteLength":1947008,"byteStride":8,"name":"bufferViewUnsignedShortVec4"},{"buffer":0,"byteOffset":20259804,"byteLength":2112,"name":"bufferViewFloatMat4"}],"buffers":[{"uri":"Race_JointSkin.bin","byteLength":20261916}],"materials":[{"pbrMetallicRoughness":{"baseColorTexture":{"index":1},"metallicRoughnessTexture":{"index":2}},"normalTexture":{"index":0},"name":"M_Joint"},{"pbrMetallicRoughness":{"baseColorTexture":{"index":4},"metallicRoughnessTexture":{"index":5}},"normalTexture":{"index":3},"name":"M_RaceWheel"},{"pbrMetallicRoughness":{"baseColorTexture":{"index":7},"metallicRoughnessTexture":{"index":8}},"normalTexture":{"index":6},"name":"M_RaceBody"}],"textures":[{"sampler":0,"source":0,"name":"Wheel_Normal_OpenGL.png"},{"sampler":0,"source":1,"name":"Wheel_Base_color.png"},{"sampler":0,"source":2,"name":"J_Roughness1J_Metallic.jpg"},{"sampler":0,"source":3,"name":"RaceWheel_Normal_OpenGL.png"},{"sampler":0,"source":4,"name":"RaceWheel_Base_color.png"},{"sampler":0,"source":5,"name":"RWRoughnessRWMetallic.jpg"},{"sampler":0,"source":6,"name":"RacePaint_Normal_OpenGL.png"},{"sampler":0,"source":7,"name":"RacePaint_Base_color.png"},{"sampler":0,"source":8,"name":"B_RoughnessB_Metallic.jpg"}],"images":[{"uri":"Wheel_Normal_OpenGL.png"},{"uri":"Wheel_Base_color.png"},{"uri":"J_Roughness1J_Metallic.jpg"},{"uri":"RaceWheel_Normal_OpenGL.png"},{"uri":"RaceWheel_Base_color.png"},{"uri":"RWRoughnessRWMetallic.jpg"},{"uri":"RacePaint_Normal_OpenGL.png"},{"uri":"RacePaint_Base_color.png"},{"uri":"B_RoughnessB_Metallic.jpg"}],"samplers":[{"magFilter":9729,"minFilter":9987}],"skins":[{"inverseBindMatrices":126,"skeleton":14,"joints":[14,15,16],"name":"skeleton #0"},{"inverseBindMatrices":127,"skeleton":14,"joints":[14,17,18],"name":"skeleton #1"},{"inverseBindMatrices":128,"skeleton":14,"joints":[14,19,20],"name":"skeleton #2"},{"inverseBindMatrices":129,"skeleton":14,"joints":[14,21,22],"name":"skeleton #3"},{"inverseBindMatrices":130,"skeleton":14,"joints":[14,15],"name":"skeleton #4"},{"inverseBindMatrices":131,"skeleton":14,"joints":[14,21],"name":"skeleton #5"},{"inverseBindMatrices":132,"skeleton":14,"joints":[14,17],"name":"skeleton #6"},{"inverseBindMatrices":133,"skeleton":14,"joints":[14,19],"name":"skeleton #7"},{"inverseBindMatrices":134,"skeleton":14,"joints":[14,15,16],"name":"skeleton #0_1"},{"inverseBindMatrices":135,"skeleton":14,"joints":[14,21,22],"name":"skeleton #3_1"},{"inverseBindMatrices":136,"skeleton":14,"joints":[14,17,18],"name":"skeleton #1_1"},{"inverseBindMatrices":137,"skeleton":14,"joints":[14,19,20],"name":"skeleton #2_1"},{"inverseBindMatrices":138,"skeleton":14,"joints":[14],"name":"skeleton #8"}]}