{"asset":{"version":"2.0","generator":"babylon.js glTF exporter for Autodesk Maya 2018.7 v20240312.5"},"scene":0,"scenes":[{"nodes":[0]}],"nodes":[{"children":[1,2,3,4,5,6,7,8,9,10,11,12,13],"name":"Geo"},{"mesh":0,"name":"Mesh_Wheel_Inner_LF"},{"mesh":1,"name":"Mesh_Wheel_Inner_LB"},{"mesh":2,"name":"Mesh_Wheel_Inner_RB"},{"mesh":3,"name":"Mesh_Wheel_Inner_RF"},{"mesh":4,"name":"Mesh_Joint_LF"},{"mesh":5,"name":"Mesh_Joint_RF"},{"mesh":6,"name":"Mesh_Joint_LB"},{"mesh":7,"name":"Mesh_Joint_RB"},{"mesh":8,"name":"Wheel_LF"},{"mesh":9,"name":"Wheel_RF"},{"mesh":10,"name":"Wheel_LB"},{"mesh":11,"name":"Wheel_RB"},{"mesh":12,"name":"Mesh_Body"}],"meshes":[{"primitives":[{"attributes":{"POSITION":1,"TANGENT":2,"NORMAL":3,"TEXCOORD_0":4},"indices":0,"material":0}],"name":"Mesh_Wheel_Inner_LF"},{"primitives":[{"attributes":{"POSITION":6,"TANGENT":7,"NORMAL":8,"TEXCOORD_0":9},"indices":5,"material":0}],"name":"Mesh_Wheel_Inner_LB"},{"primitives":[{"attributes":{"POSITION":11,"TANGENT":12,"NORMAL":13,"TEXCOORD_0":14},"indices":10,"material":0}],"name":"Mesh_Wheel_Inner_RB"},{"primitives":[{"attributes":{"POSITION":16,"TANGENT":17,"NORMAL":18,"TEXCOORD_0":19},"indices":15,"material":0}],"name":"Mesh_Wheel_Inner_RF"},{"primitives":[{"attributes":{"POSITION":21,"TANGENT":22,"NORMAL":23,"TEXCOORD_0":24},"indices":20,"material":0},{"attributes":{"POSITION":26,"TANGENT":27,"NORMAL":28,"TEXCOORD_0":29},"indices":25,"material":1}],"name":"Mesh_Joint_LF"},{"primitives":[{"attributes":{"POSITION":31,"TANGENT":32,"NORMAL":33,"TEXCOORD_0":34},"indices":30,"material":0},{"attributes":{"POSITION":36,"TANGENT":37,"NORMAL":38,"TEXCOORD_0":39},"indices":35,"material":1}],"name":"Mesh_Joint_RF"},{"primitives":[{"attributes":{"POSITION":41,"TANGENT":42,"NORMAL":43,"TEXCOORD_0":44},"indices":40,"material":0},{"attributes":{"POSITION":46,"TANGENT":47,"NORMAL":48,"TEXCOORD_0":49},"indices":45,"material":1}],"name":"Mesh_Joint_LB"},{"primitives":[{"attributes":{"POSITION":51,"TANGENT":52,"NORMAL":53,"TEXCOORD_0":54},"indices":50,"material":0},{"attributes":{"POSITION":56,"TANGENT":57,"NORMAL":58,"TEXCOORD_0":59},"indices":55,"material":1}],"name":"Mesh_Joint_RB"},{"primitives":[{"attributes":{"POSITION":61,"TANGENT":62,"NORMAL":63,"TEXCOORD_0":64},"indices":60,"material":1}],"name":"Wheel_LF"},{"primitives":[{"attributes":{"POSITION":66,"TANGENT":67,"NORMAL":68,"TEXCOORD_0":69},"indices":65,"material":1}],"name":"Wheel_RF"},{"primitives":[{"attributes":{"POSITION":71,"TANGENT":72,"NORMAL":73,"TEXCOORD_0":74},"indices":70,"material":1}],"name":"Wheel_LB"},{"primitives":[{"attributes":{"POSITION":76,"TANGENT":77,"NORMAL":78,"TEXCOORD_0":79},"indices":75,"material":1}],"name":"Wheel_RB"},{"primitives":[{"attributes":{"POSITION":81,"TANGENT":82,"NORMAL":83,"TEXCOORD_0":84},"indices":80,"material":2},{"attributes":{"POSITION":86,"TANGENT":87,"NORMAL":88,"TEXCOORD_0":89},"indices":85,"material":1}],"name":"Mesh_Body"}],"accessors":[{"bufferView":0,"componentType":5123,"count":6408,"type":"SCALAR","name":"accessorIndices"},{"bufferView":1,"componentType":5126,"count":1735,"max":[1.00867236,0.578741,1.95321143],"min":[0.6848056,0.3606012,1.735071],"type":"VEC3","name":"accessorPositions"},{"bufferView":2,"componentType":5126,"count":1735,"type":"VEC4","name":"accessorTangents"},{"bufferView":1,"byteOffset":20820,"componentType":5126,"count":1735,"type":"VEC3","name":"accessorNormals"},{"bufferView":3,"componentType":5126,"count":1735,"type":"VEC2","name":"accessorUVs"},{"bufferView":0,"byteOffset":12816,"componentType":5123,"count":6408,"type":"SCALAR","name":"accessorIndices"},{"bufferView":1,"byteOffset":41640,"componentType":5126,"count":1735,"max":[1.0086726,0.5787408,-1.47427034],"min":[0.6848056,0.3606009,-1.69241083],"type":"VEC3","name":"accessorPositions"},{"bufferView":2,"byteOffset":27760,"componentType":5126,"count":1735,"type":"VEC4","name":"accessorTangents"},{"bufferView":1,"byteOffset":62460,"componentType":5126,"count":1735,"type":"VEC3","name":"accessorNormals"},{"bufferView":3,"byteOffset":13880,"componentType":5126,"count":1735,"type":"VEC2","name":"accessorUVs"},{"bufferView":0,"byteOffset":25632,"componentType":5123,"count":6408,"type":"SCALAR","name":"accessorIndices"},{"bufferView":1,"byteOffset":83280,"componentType":5126,"count":1735,"max":[-0.6848056,0.5787408,-1.47427034],"min":[-1.0086726,0.3606009,-1.69241083],"type":"VEC3","name":"accessorPositions"},{"bufferView":2,"byteOffset":55520,"componentType":5126,"count":1735,"type":"VEC4","name":"accessorTangents"},{"bufferView":1,"byteOffset":104100,"componentType":5126,"count":1735,"type":"VEC3","name":"accessorNormals"},{"bufferView":3,"byteOffset":27760,"componentType":5126,"count":1735,"type":"VEC2","name":"accessorUVs"},{"bufferView":0,"byteOffset":38448,"componentType":5123,"count":6408,"type":"SCALAR","name":"accessorIndices"},{"bufferView":1,"byteOffset":124920,"componentType":5126,"count":1735,"max":[-0.6848056,0.578741,1.95321143],"min":[-1.0086726,0.3606012,1.735071],"type":"VEC3","name":"accessorPositions"},{"bufferView":2,"byteOffset":83280,"componentType":5126,"count":1735,"type":"VEC4","name":"accessorTangents"},{"bufferView":1,"byteOffset":145740,"componentType":5126,"count":1735,"type":"VEC3","name":"accessorNormals"},{"bufferView":3,"byteOffset":41640,"componentType":5126,"count":1735,"type":"VEC2","name":"accessorUVs"},{"bufferView":0,"byteOffset":51264,"componentType":5123,"count":1872,"type":"SCALAR","name":"accessorIndices"},{"bufferView":1,"byteOffset":166560,"componentType":5126,"count":583,"max":[0.8773208,0.5562685,1.90862656],"min":[0.498828351,0.3840227,1.77965689],"type":"VEC3","name":"accessorPositions"},{"bufferView":2,"byteOffset":111040,"componentType":5126,"count":583,"type":"VEC4","name":"accessorTangents"},{"bufferView":1,"byteOffset":173556,"componentType":5126,"count":583,"type":"VEC3","name":"accessorNormals"},{"bufferView":3,"byteOffset":55520,"componentType":5126,"count":583,"type":"VEC2","name":"accessorUVs"},{"bufferView":0,"byteOffset":55008,"componentType":5123,"count":8340,"type":"SCALAR","name":"accessorIndices"},{"bufferView":1,"byteOffset":180552,"componentType":5126,"count":2933,"max":[0.9880856,0.612302244,1.72698164],"min":[0.884672046,0.3231584,1.55926847],"type":"VEC3","name":"accessorPositions"},{"bufferView":2,"byteOffset":120368,"componentType":5126,"count":2933,"type":"VEC4","name":"accessorTangents"},{"bufferView":1,"byteOffset":215748,"componentType":5126,"count":2933,"type":"VEC3","name":"accessorNormals"},{"bufferView":3,"byteOffset":60184,"componentType":5126,"count":2933,"type":"VEC2","name":"accessorUVs"},{"bufferView":0,"byteOffset":71688,"componentType":5123,"count":1872,"type":"SCALAR","name":"accessorIndices"},{"bufferView":1,"byteOffset":250944,"componentType":5126,"count":584,"max":[-0.498828351,0.5562685,1.90862656],"min":[-0.8773208,0.3840227,1.77965689],"type":"VEC3","name":"accessorPositions"},{"bufferView":2,"byteOffset":167296,"componentType":5126,"count":584,"type":"VEC4","name":"accessorTangents"},{"bufferView":1,"byteOffset":257952,"componentType":5126,"count":584,"type":"VEC3","name":"accessorNormals"},{"bufferView":3,"byteOffset":83648,"componentType":5126,"count":584,"type":"VEC2","name":"accessorUVs"},{"bufferView":0,"byteOffset":75432,"componentType":5123,"count":8340,"type":"SCALAR","name":"accessorIndices"},{"bufferView":1,"byteOffset":264960,"componentType":5126,"count":2933,"max":[-0.884672046,0.612302244,1.72698164],"min":[-0.9880856,0.3231584,1.55926847],"type":"VEC3","name":"accessorPositions"},{"bufferView":2,"byteOffset":176640,"componentType":5126,"count":2933,"type":"VEC4","name":"accessorTangents"},{"bufferView":1,"byteOffset":300156,"componentType":5126,"count":2933,"type":"VEC3","name":"accessorNormals"},{"bufferView":3,"byteOffset":88320,"componentType":5126,"count":2933,"type":"VEC2","name":"accessorUVs"},{"bufferView":0,"byteOffset":92112,"componentType":5123,"count":1872,"type":"SCALAR","name":"accessorIndices"},{"bufferView":1,"byteOffset":335352,"componentType":5126,"count":615,"max":[0.891178548,0.5562685,-1.51888525],"min":[0.5126863,0.3840227,-1.64785457],"type":"VEC3","name":"accessorPositions"},{"bufferView":2,"byteOffset":223568,"componentType":5126,"count":615,"type":"VEC4","name":"accessorTangents"},{"bufferView":1,"byteOffset":342732,"componentType":5126,"count":615,"type":"VEC3","name":"accessorNormals"},{"bufferView":3,"byteOffset":111784,"componentType":5126,"count":615,"type":"VEC2","name":"accessorUVs"},{"bufferView":0,"byteOffset":95856,"componentType":5123,"count":8340,"type":"SCALAR","name":"accessorIndices"},{"bufferView":1,"byteOffset":350112,"componentType":5126,"count":2933,"max":[0.979173839,0.612302244,-1.70065963],"min":[0.8757603,0.3231584,-1.8683728],"type":"VEC3","name":"accessorPositions"},{"bufferView":2,"byteOffset":233408,"componentType":5126,"count":2933,"type":"VEC4","name":"accessorTangents"},{"bufferView":1,"byteOffset":385308,"componentType":5126,"count":2933,"type":"VEC3","name":"accessorNormals"},{"bufferView":3,"byteOffset":116704,"componentType":5126,"count":2933,"type":"VEC2","name":"accessorUVs"},{"bufferView":0,"byteOffset":112536,"componentType":5123,"count":1872,"type":"SCALAR","name":"accessorIndices"},{"bufferView":1,"byteOffset":420504,"componentType":5126,"count":615,"max":[-0.5126863,0.5562685,-1.51888525],"min":[-0.891178548,0.3840227,-1.64785457],"type":"VEC3","name":"accessorPositions"},{"bufferView":2,"byteOffset":280336,"componentType":5126,"count":615,"type":"VEC4","name":"accessorTangents"},{"bufferView":1,"byteOffset":427884,"componentType":5126,"count":615,"type":"VEC3","name":"accessorNormals"},{"bufferView":3,"byteOffset":140168,"componentType":5126,"count":615,"type":"VEC2","name":"accessorUVs"},{"bufferView":0,"byteOffset":116280,"componentType":5123,"count":8340,"type":"SCALAR","name":"accessorIndices"},{"bufferView":1,"byteOffset":435264,"componentType":5126,"count":2933,"max":[-0.8757603,0.612302244,-1.70065963],"min":[-0.979173839,0.3231584,-1.8683728],"type":"VEC3","name":"accessorPositions"},{"bufferView":2,"byteOffset":290176,"componentType":5126,"count":2933,"type":"VEC4","name":"accessorTangents"},{"bufferView":1,"byteOffset":470460,"componentType":5126,"count":2933,"type":"VEC3","name":"accessorNormals"},{"bufferView":3,"byteOffset":145088,"componentType":5126,"count":2933,"type":"VEC2","name":"accessorUVs"},{"bufferView":0,"byteOffset":132960,"componentType":5123,"count":115422,"type":"SCALAR","name":"accessorIndices"},{"bufferView":1,"byteOffset":505656,"componentType":5126,"count":28957,"max":[1.12769151,0.9214247,2.29582834],"min":[0.7731032,0.0180527866,1.39245379],"type":"VEC3","name":"accessorPositions"},{"bufferView":2,"byteOffset":337104,"componentType":5126,"count":28957,"type":"VEC4","name":"accessorTangents"},{"bufferView":1,"byteOffset":853140,"componentType":5126,"count":28957,"type":"VEC3","name":"accessorNormals"},{"bufferView":3,"byteOffset":168552,"componentType":5126,"count":28957,"type":"VEC2","name":"accessorUVs"},{"bufferView":0,"byteOffset":363804,"componentType":5123,"count":115422,"type":"SCALAR","name":"accessorIndices"},{"bufferView":1,"byteOffset":1200624,"componentType":5126,"count":28937,"max":[-0.7731032,0.9214247,2.29582834],"min":[-1.12769151,0.0180527866,1.39245379],"type":"VEC3","name":"accessorPositions"},{"bufferView":2,"byteOffset":800416,"componentType":5126,"count":28937,"type":"VEC4","name":"accessorTangents"},{"bufferView":1,"byteOffset":1547868,"componentType":5126,"count":28937,"type":"VEC3","name":"accessorNormals"},{"bufferView":3,"byteOffset":400208,"componentType":5126,"count":28937,"type":"VEC2","name":"accessorUVs"},{"bufferView":0,"byteOffset":594648,"componentType":5123,"count":115422,"type":"SCALAR","name":"accessorIndices"},{"bufferView":1,"byteOffset":1895112,"componentType":5126,"count":28948,"max":[1.11877978,0.9214247,-1.13181293],"min":[0.764191449,0.0180527866,-2.03518748],"type":"VEC3","name":"accessorPositions"},{"bufferView":2,"byteOffset":1263408,"componentType":5126,"count":28948,"type":"VEC4","name":"accessorTangents"},{"bufferView":1,"byteOffset":2242488,"componentType":5126,"count":28948,"type":"VEC3","name":"accessorNormals"},{"bufferView":3,"byteOffset":631704,"componentType":5126,"count":28948,"type":"VEC2","name":"accessorUVs"},{"bufferView":0,"byteOffset":825492,"componentType":5123,"count":115422,"type":"SCALAR","name":"accessorIndices"},{"bufferView":1,"byteOffset":2589864,"componentType":5126,"count":28933,"max":[-0.764191449,0.9214247,-1.13181293],"min":[-1.11877978,0.0180527866,-2.03518748],"type":"VEC3","name":"accessorPositions"},{"bufferView":2,"byteOffset":1726576,"componentType":5126,"count":28933,"type":"VEC4","name":"accessorTangents"},{"bufferView":1,"byteOffset":2937060,"componentType":5126,"count":28933,"type":"VEC3","name":"accessorNormals"},{"bufferView":3,"byteOffset":863288,"componentType":5126,"count":28933,"type":"VEC2","name":"accessorUVs"},{"bufferView":0,"byteOffset":1056336,"componentType":5125,"count":400323,"type":"SCALAR","name":"accessorIndices"},{"bufferView":1,"byteOffset":3284256,"componentType":5126,"count":101760,"max":[0.898970842,1.53775156,2.28753972],"min":[-0.898970842,0.4287648,-2.3064518],"type":"VEC3","name":"accessorPositions"},{"bufferView":2,"byteOffset":2189504,"componentType":5126,"count":101760,"type":"VEC4","name":"accessorTangents"},{"bufferView":1,"byteOffset":4505376,"componentType":5126,"count":101760,"type":"VEC3","name":"accessorNormals"},{"bufferView":3,"byteOffset":1094752,"componentType":5126,"count":101760,"type":"VEC2","name":"accessorUVs"},{"bufferView":0,"byteOffset":2657628,"componentType":5125,"count":19776,"type":"SCALAR","name":"accessorIndices"},{"bufferView":1,"byteOffset":5726496,"componentType":5126,"count":4772,"max":[0.643842757,0.7695686,1.91081345],"min":[-0.6438426,0.309928954,-1.65004265],"type":"VEC3","name":"accessorPositions"},{"bufferView":2,"byteOffset":3817664,"componentType":5126,"count":4772,"type":"VEC4","name":"accessorTangents"},{"bufferView":1,"byteOffset":5783760,"componentType":5126,"count":4772,"type":"VEC3","name":"accessorNormals"},{"bufferView":3,"byteOffset":1908832,"componentType":5126,"count":4772,"type":"VEC2","name":"accessorUVs"}],"bufferViews":[{"buffer":0,"byteLength":2736732,"name":"bufferViewScalar"},{"buffer":0,"byteOffset":2736732,"byteLength":5841024,"byteStride":12,"name":"bufferViewFloatVec3"},{"buffer":0,"byteOffset":8577756,"byteLength":3894016,"byteStride":16,"name":"bufferViewFloatVec4"},{"buffer":0,"byteOffset":12471772,"byteLength":1947008,"byteStride":8,"name":"bufferViewFloatVec2"}],"buffers":[{"uri":"Race_Mesh.bin","byteLength":14418780}],"materials":[{"pbrMetallicRoughness":{"baseColorTexture":{"index":1},"metallicRoughnessTexture":{"index":2}},"normalTexture":{"index":0},"name":"M_Joint"},{"pbrMetallicRoughness":{"baseColorTexture":{"index":4},"metallicRoughnessTexture":{"index":5}},"normalTexture":{"index":3},"name":"M_RaceWheel"},{"pbrMetallicRoughness":{"baseColorTexture":{"index":7},"metallicRoughnessTexture":{"index":8}},"normalTexture":{"index":6},"name":"M_RaceBody"}],"textures":[{"sampler":0,"source":0,"name":"Wheel_Normal_OpenGL.png"},{"sampler":0,"source":1,"name":"Wheel_Base_color.png"},{"sampler":0,"source":2,"name":"J_Roughness1J_Metallic.jpg"},{"sampler":0,"source":3,"name":"RaceWheel_Normal_OpenGL.png"},{"sampler":0,"source":4,"name":"RaceWheel_Base_color.png"},{"sampler":0,"source":5,"name":"RWRoughnessRWMetallic.jpg"},{"sampler":0,"source":6,"name":"RacePaint_Normal_OpenGL.png"},{"sampler":0,"source":7,"name":"RacePaint_Base_color.png"},{"sampler":0,"source":8,"name":"B_RoughnessB_Metallic.jpg"}],"images":[{"uri":"Wheel_Normal_OpenGL.png"},{"uri":"Wheel_Base_color.png"},{"uri":"J_Roughness1J_Metallic.jpg"},{"uri":"RaceWheel_Normal_OpenGL.png"},{"uri":"RaceWheel_Base_color.png"},{"uri":"RWRoughnessRWMetallic.jpg"},{"uri":"RacePaint_Normal_OpenGL.png"},{"uri":"RacePaint_Base_color.png"},{"uri":"B_RoughnessB_Metallic.jpg"}],"samplers":[{"magFilter":9729,"minFilter":9987}]}