<?xml version="1.0" encoding="utf-8"?>
<!-- Generator: Adobe Illustrator 16.0.0, SVG Export Plug-In . SVG Version: 6.00 Build 0)  -->
<!DOCTYPE svg PUBLIC "-//W3C//DTD SVG 1.1//EN" "http://www.w3.org/Graphics/SVG/1.1/DTD/svg11.dtd">
<svg version="1.1" id="Layer_1" xmlns="http://www.w3.org/2000/svg" xmlns:xlink="http://www.w3.org/1999/xlink" x="0px" y="0px"
	 width="30px" height="30px" viewBox="0 0 30 30" enable-background="new 0 0 30 30" xml:space="preserve">


<line fill="none" stroke="#DC941B" stroke-width="1.5" stroke-linecap="round" stroke-miterlimit="10" x1="3.164" y1="8.507" x2="10.415" y2="12.485"/>
<line fill="none" stroke="#DC941B" stroke-width="1.5" stroke-linecap="round" stroke-miterlimit="10" x1="26.836" y1="8.507" x2="19.871" y2="12.328"/>
<line fill="none" stroke="#DC941B" stroke-width="1.5" stroke-linecap="round" stroke-miterlimit="10" x1="15" y1="20.306" x2="15" y2="28.5"/>
<polygon fill="#EAB74C" points="10.16,12.207 14.999,9.413 19.84,12.207 14.999,14.988 "/>
<polygon fill="#C07717" points="15.024,14.985 19.873,12.208 19.873,17.812 15.032,20.605 "/>
<polygon fill="#DC941B" points="15.021,14.985 10.172,12.208 10.172,17.812 15.011,20.605 "/>
<polygon fill="none" stroke="#282828" stroke-miterlimit="10" points="10.16,12.207 14.999,9.413 19.84,12.207 19.84,17.794 
	14.999,20.588 10.16,17.794 "/>
<g>
	
		<line fill="none" stroke="#EAB74C" stroke-width="1.5" stroke-linecap="round" stroke-miterlimit="10" x1="26.836" y1="21.493" x2="17.666" y2="16.462"/>
	
		<line fill="none" stroke="#EAB74C" stroke-width="1.5" stroke-linecap="round" stroke-miterlimit="10" x1="12.548" y1="16.345" x2="3.164" y2="21.493"/>
	
		<line fill="none" stroke="#EAB74C" stroke-width="1.5" stroke-linecap="round" stroke-miterlimit="10" x1="15" y1="1.5" x2="15" y2="12.37"/>
</g>
</svg>
