{
	"asset":{
		"version":"2.0",
		"generator":"Houdini GLTF 2.0 Exporter"
	},
	"accessors":[
		{
			"bufferView":0,
			"componentType":5123,
			"count":23805,
			"type":"SCALAR",
			"min":[0
			],
			"max":[7046
			]
		},
		{
			"bufferView":1,
			"componentType":5126,
			"count":7047,
			"type":"VEC3",
			"min":[0.662911534,0.00283383508,1.2748059
			],
			"max":[0.961520493,0.896289289,2.1682651
			]
		},
		{
			"bufferView":2,
			"componentType":5123,
			"count":7047,
			"type":"VEC4",
			"min":[0,0,0,0
			],
			"max":[0,0,0,0
			]
		},
		{
			"bufferView":3,
			"componentType":5126,
			"count":7047,
			"type":"VEC4",
			"min":[1,0,0,0
			],
			"max":[1,0,0,0
			]
		},
		{
			"bufferView":4,
			"componentType":5126,
			"count":7047,
			"type":"VEC2",
			"min":[0,0
			],
			"max":[0.995200038,1
			]
		},
		{
			"bufferView":5,
			"componentType":5126,
			"count":7047,
			"type":"VEC3",
			"min":[-1,-0.999999821,-0.99999994
			],
			"max":[1,0.999999821,0.99999994
			]
		},
		{
			"bufferView":6,
			"componentType":5123,
			"count":23805,
			"type":"SCALAR",
			"min":[0
			],
			"max":[7046
			]
		},
		{
			"bufferView":7,
			"componentType":5126,
			"count":7047,
			"type":"VEC3",
			"min":[-0.961520493,0.00283383508,1.2748059
			],
			"max":[-0.662911534,0.896289289,2.1682651
			]
		},
		{
			"bufferView":8,
			"componentType":5123,
			"count":7047,
			"type":"VEC4",
			"min":[1,0,0,0
			],
			"max":[1,0,0,0
			]
		},
		{
			"bufferView":9,
			"componentType":5126,
			"count":7047,
			"type":"VEC4",
			"min":[1,0,0,0
			],
			"max":[1,0,0,0
			]
		},
		{
			"bufferView":10,
			"componentType":5126,
			"count":7047,
			"type":"VEC2",
			"min":[0,0
			],
			"max":[0.995200038,1
			]
		},
		{
			"bufferView":11,
			"componentType":5126,
			"count":7047,
			"type":"VEC3",
			"min":[-1,-0.999999821,-0.99999994
			],
			"max":[1,0.999999821,0.99999994
			]
		},
		{
			"bufferView":12,
			"componentType":5123,
			"count":23805,
			"type":"SCALAR",
			"min":[0
			],
			"max":[7046
			]
		},
		{
			"bufferView":13,
			"componentType":5126,
			"count":7047,
			"type":"VEC3",
			"min":[-0.961520493,0.00283383508,-1.87241781
			],
			"max":[-0.662911534,0.896289289,-0.978958845
			]
		},
		{
			"bufferView":14,
			"componentType":5123,
			"count":7047,
			"type":"VEC4",
			"min":[2,0,0,0
			],
			"max":[2,0,0,0
			]
		},
		{
			"bufferView":15,
			"componentType":5126,
			"count":7047,
			"type":"VEC4",
			"min":[1,0,0,0
			],
			"max":[1,0,0,0
			]
		},
		{
			"bufferView":16,
			"componentType":5126,
			"count":7047,
			"type":"VEC2",
			"min":[0,0
			],
			"max":[0.995200038,1
			]
		},
		{
			"bufferView":17,
			"componentType":5126,
			"count":7047,
			"type":"VEC3",
			"min":[-1,-0.999999821,-0.99999994
			],
			"max":[1,0.999999821,0.99999994
			]
		},
		{
			"bufferView":18,
			"componentType":5123,
			"count":23805,
			"type":"SCALAR",
			"min":[0
			],
			"max":[7046
			]
		},
		{
			"bufferView":19,
			"componentType":5126,
			"count":7047,
			"type":"VEC3",
			"min":[0.662911534,0.00283383508,-1.87241781
			],
			"max":[0.961520493,0.896289289,-0.978958845
			]
		},
		{
			"bufferView":20,
			"componentType":5123,
			"count":7047,
			"type":"VEC4",
			"min":[3,0,0,0
			],
			"max":[3,0,0,0
			]
		},
		{
			"bufferView":21,
			"componentType":5126,
			"count":7047,
			"type":"VEC4",
			"min":[1,0,0,0
			],
			"max":[1,0,0,0
			]
		},
		{
			"bufferView":22,
			"componentType":5126,
			"count":7047,
			"type":"VEC2",
			"min":[0,0
			],
			"max":[0.995200038,1
			]
		},
		{
			"bufferView":23,
			"componentType":5126,
			"count":7047,
			"type":"VEC3",
			"min":[-1,-0.999999821,-0.99999994
			],
			"max":[1,0.999999821,0.99999994
			]
		},
		{
			"bufferView":24,
			"componentType":5123,
			"count":24705,
			"type":"SCALAR",
			"min":[0
			],
			"max":[7594
			]
		},
		{
			"bufferView":25,
			"componentType":5126,
			"count":7595,
			"type":"VEC3",
			"min":[-0.446729511,0.59681493,-2.40577722
			],
			"max":[0.446729511,1.4920553,-2.10144806
			]
		},
		{
			"bufferView":26,
			"componentType":5123,
			"count":7595,
			"type":"VEC4",
			"min":[4,0,0,0
			],
			"max":[4,0,0,0
			]
		},
		{
			"bufferView":27,
			"componentType":5126,
			"count":7595,
			"type":"VEC4",
			"min":[1,0,0,0
			],
			"max":[1,0,0,0
			]
		},
		{
			"bufferView":28,
			"componentType":5126,
			"count":7595,
			"type":"VEC2",
			"min":[0,0
			],
			"max":[0.995200038,1
			]
		},
		{
			"bufferView":29,
			"componentType":5126,
			"count":7595,
			"type":"VEC3",
			"min":[-1,-0.999988019,-1
			],
			"max":[1,0.999970853,0.999971092
			]
		},
		{
			"bufferView":30,
			"componentType":5125,
			"count":163206,
			"type":"SCALAR",
			"min":[0
			],
			"max":[44228
			]
		},
		{
			"bufferView":31,
			"componentType":5126,
			"count":44229,
			"type":"VEC3",
			"min":[-1.01087177,0.377776831,-2.42358232
			],
			"max":[1.01087177,1.96378398,2.4015379
			]
		},
		{
			"bufferView":32,
			"componentType":5123,
			"count":44229,
			"type":"VEC4",
			"min":[4,0,0,0
			],
			"max":[4,0,0,0
			]
		},
		{
			"bufferView":33,
			"componentType":5126,
			"count":44229,
			"type":"VEC4",
			"min":[1,0,0,0
			],
			"max":[1,0,0,0
			]
		},
		{
			"bufferView":34,
			"componentType":5126,
			"count":44229,
			"type":"VEC2",
			"min":[0,0.0190800428
			],
			"max":[1,1
			]
		},
		{
			"bufferView":35,
			"componentType":5126,
			"count":44229,
			"type":"VEC3",
			"min":[-1,-1,-1
			],
			"max":[1,1,1
			]
		},
		{
			"bufferView":36,
			"componentType":5126,
			"count":5,
			"type":"MAT4",
			"min":[2.83276939e-14,-2.46519033e-30,-100,0,-5.82076609e-07,99.9999924,-1.28699716e-22,0,-6.12323379e-15,0,2.83276939e-14,0,-81.4848175,-113.215149,-172.154007,1
			],
			"max":[100,8.84959919e-31,3.15544362e-30,0,5.89063453e-23,100,2.11758237e-22,0,100,2.32830644e-06,100,0,81.4848022,-44.9561539,142.569,1
			]
		}
	],
	"buffers":[
		{
			"uri":"jeep_data.bin",
			"byteLength":5373676,
			"name":"main_buffer"
		}
	],
	"bufferViews":[
		{
			"buffer":0,
			"byteLength":47610,
			"target":34963
		},
		{
			"buffer":0,
			"byteOffset":47612,
			"byteLength":84564,
			"target":34962
		},
		{
			"buffer":0,
			"byteOffset":132176,
			"byteLength":56376,
			"target":34962
		},
		{
			"buffer":0,
			"byteOffset":188552,
			"byteLength":112752,
			"target":34962
		},
		{
			"buffer":0,
			"byteOffset":301304,
			"byteLength":56376,
			"target":34962
		},
		{
			"buffer":0,
			"byteOffset":357680,
			"byteLength":84564,
			"target":34962
		},
		{
			"buffer":0,
			"byteOffset":442244,
			"byteLength":47610,
			"target":34963
		},
		{
			"buffer":0,
			"byteOffset":489856,
			"byteLength":84564,
			"target":34962
		},
		{
			"buffer":0,
			"byteOffset":574420,
			"byteLength":56376,
			"target":34962
		},
		{
			"buffer":0,
			"byteOffset":630796,
			"byteLength":112752,
			"target":34962
		},
		{
			"buffer":0,
			"byteOffset":743548,
			"byteLength":56376,
			"target":34962
		},
		{
			"buffer":0,
			"byteOffset":799924,
			"byteLength":84564,
			"target":34962
		},
		{
			"buffer":0,
			"byteOffset":884488,
			"byteLength":47610,
			"target":34963
		},
		{
			"buffer":0,
			"byteOffset":932100,
			"byteLength":84564,
			"target":34962
		},
		{
			"buffer":0,
			"byteOffset":1016664,
			"byteLength":56376,
			"target":34962
		},
		{
			"buffer":0,
			"byteOffset":1073040,
			"byteLength":112752,
			"target":34962
		},
		{
			"buffer":0,
			"byteOffset":1185792,
			"byteLength":56376,
			"target":34962
		},
		{
			"buffer":0,
			"byteOffset":1242168,
			"byteLength":84564,
			"target":34962
		},
		{
			"buffer":0,
			"byteOffset":1326732,
			"byteLength":47610,
			"target":34963
		},
		{
			"buffer":0,
			"byteOffset":1374344,
			"byteLength":84564,
			"target":34962
		},
		{
			"buffer":0,
			"byteOffset":1458908,
			"byteLength":56376,
			"target":34962
		},
		{
			"buffer":0,
			"byteOffset":1515284,
			"byteLength":112752,
			"target":34962
		},
		{
			"buffer":0,
			"byteOffset":1628036,
			"byteLength":56376,
			"target":34962
		},
		{
			"buffer":0,
			"byteOffset":1684412,
			"byteLength":84564,
			"target":34962
		},
		{
			"buffer":0,
			"byteOffset":1768976,
			"byteLength":49410,
			"target":34963
		},
		{
			"buffer":0,
			"byteOffset":1818388,
			"byteLength":91140,
			"target":34962
		},
		{
			"buffer":0,
			"byteOffset":1909528,
			"byteLength":60760,
			"target":34962
		},
		{
			"buffer":0,
			"byteOffset":1970288,
			"byteLength":121520,
			"target":34962
		},
		{
			"buffer":0,
			"byteOffset":2091808,
			"byteLength":60760,
			"target":34962
		},
		{
			"buffer":0,
			"byteOffset":2152568,
			"byteLength":91140,
			"target":34962
		},
		{
			"buffer":0,
			"byteOffset":2243708,
			"byteLength":652824,
			"target":34963
		},
		{
			"buffer":0,
			"byteOffset":2896532,
			"byteLength":530748,
			"target":34962
		},
		{
			"buffer":0,
			"byteOffset":3427280,
			"byteLength":353832,
			"target":34962
		},
		{
			"buffer":0,
			"byteOffset":3781112,
			"byteLength":707664,
			"target":34962
		},
		{
			"buffer":0,
			"byteOffset":4488776,
			"byteLength":353832,
			"target":34962
		},
		{
			"buffer":0,
			"byteOffset":4842608,
			"byteLength":530748,
			"target":34962
		},
		{
			"buffer":0,
			"byteOffset":5373356,
			"byteLength":320
		}
	],
	"nodes":[
		{
			"children":[1,2,3,4
			],
			"matrix":[2.83276934e-18,0,0.00999999978,0,3.61891635e-27,0.0100000007,5.82076609e-11,0,-0.00999999978,0,2.83276934e-18,0,1.87298771e-24,1.1321516,0.0413366891,1
			],
			"name":"joint_Body"
		},
		{
			"matrix":[2.83276934e-16,0,-1,0,-5.82076565e-09,0.999999881,-1.28699708e-24,0,1.00000012,0,2.83276961e-16,0,168.019897,-68.2590027,-81.4848175,1
			],
			"name":"joint_LF"
		},
		{
			"matrix":[2.83276934e-16,0,-1,0,-5.82076565e-09,0.999999881,-1.28699708e-24,0,1,-2.32830626e-08,2.83276934e-16,0,168.02034,-68.2589569,81.4848022,1
			],
			"name":"joint_RF"
		},
		{
			"matrix":[2.83276934e-16,0,-1,0,-5.82076565e-09,0.999999881,-1.28699708e-24,0,1,0,2.83276934e-16,0,-146.702667,-68.2589569,81.4848022,1
			],
			"name":"joint_RB"
		},
		{
			"matrix":[2.83276934e-16,0,-1,0,-5.82076565e-09,0.999999881,-1.28699708e-24,0,1,0,2.83276934e-16,0,-146.70253,-68.2590027,-81.4848175,1
			],
			"name":"joint_LB"
		},
		{
			"mesh":0,
			"skin":0
		}
	],
	"meshes":[
		{
			"primitives":[
				{
					"attributes":{
						"NORMAL":5,
						"TEXCOORD_0":4,
						"WEIGHTS_0":3,
						"JOINTS_0":2,
						"POSITION":1
					},
					"indices":0,
					"material":0
				},
				{
					"attributes":{
						"NORMAL":11,
						"TEXCOORD_0":10,
						"WEIGHTS_0":9,
						"JOINTS_0":8,
						"POSITION":7
					},
					"indices":6,
					"material":1
				},
				{
					"attributes":{
						"NORMAL":17,
						"TEXCOORD_0":16,
						"WEIGHTS_0":15,
						"JOINTS_0":14,
						"POSITION":13
					},
					"indices":12,
					"material":2
				},
				{
					"attributes":{
						"NORMAL":23,
						"TEXCOORD_0":22,
						"WEIGHTS_0":21,
						"JOINTS_0":20,
						"POSITION":19
					},
					"indices":18,
					"material":3
				},
				{
					"attributes":{
						"NORMAL":29,
						"TEXCOORD_0":28,
						"WEIGHTS_0":27,
						"JOINTS_0":26,
						"POSITION":25
					},
					"indices":24,
					"material":4
				},
				{
					"attributes":{
						"NORMAL":35,
						"TEXCOORD_0":34,
						"WEIGHTS_0":33,
						"JOINTS_0":32,
						"POSITION":31
					},
					"indices":30,
					"material":5
				}
			],
			"name":"fbxcharacterimport1"
		}
	],
	"skins":[
		{
			"inverseBindMatrices":36,
			"skeleton":0,
			"joints":[1,2,3,4,0
			]
		}
	],
	"materials":[
		{
			"name":"principledshader1",
			"pbrMetallicRoughness":{
				"baseColorFactor":[1,0,0,1
				],
				"metallicFactor":0,
				"roughnessFactor":0.300000012
			}
		},
		{
			"name":"principledshader1",
			"pbrMetallicRoughness":{
				"baseColorFactor":[0,1,0.0689666271,1
				],
				"metallicFactor":0,
				"roughnessFactor":0.300000012
			}
		},
		{
			"name":"principledshader1",
			"pbrMetallicRoughness":{
				"baseColorFactor":[1,0,0.868966579,1
				],
				"metallicFactor":0,
				"roughnessFactor":0.300000012
			}
		},
		{
			"name":"principledshader1",
			"pbrMetallicRoughness":{
				"baseColorFactor":[0,0.606899977,1,1
				],
				"metallicFactor":0,
				"roughnessFactor":0.300000012
			}
		},
		{
			"name":"principledshader1",
			"pbrMetallicRoughness":{
				"metallicFactor":0,
				"roughnessFactor":0.300000012,
				"baseColorTexture":{
					"index":0
				}
			}
		},
		{
			"name":"principledshader1",
			"pbrMetallicRoughness":{
				"metallicFactor":0,
				"roughnessFactor":0.300000012,
				"baseColorTexture":{
					"index":1
				}
			}
		}
	],
	"scenes":[
		{
			"nodes":[0,5
			]
		}
	],
	"textures":[
		{
			"source":0
		},
		{
			"source":1
		}
	],
	"images":[
		{
			"uri":"Wheel_Base_color.png",
			"mimeType":"image/png"
		},
		{
			"uri":"Body_Base_color.png",
			"mimeType":"image/png"
		}
	],
	"scene":0
}
