<?xml version="1.0" encoding="utf-8"?>
<!-- Generator: Adobe Illustrator 16.0.0, SVG Export Plug-In . SVG Version: 6.00 Build 0)  -->
<!DOCTYPE svg PUBLIC "-//W3C//DTD SVG 1.1//EN" "http://www.w3.org/Graphics/SVG/1.1/DTD/svg11.dtd">
<svg version="1.1" xmlns="http://www.w3.org/2000/svg" xmlns:xlink="http://www.w3.org/1999/xlink" x="0px" y="0px" width="30px"
	 height="30px" viewBox="0 0 30 30" enable-background="new 0 0 30 30" xml:space="preserve">
<g id="Layer_2">
</g>
<g id="Layer_3">
</g>
<g id="Layer_1">
	<g>
		
		<g>
			<path fill="#800F17" d="M10.997,21.896l-7.331-6.022l-0.037-0.052c-0.102-0.14-0.996-1.393-1.068-2.32
				c-0.02-0.252,0.042-0.456,0.184-0.608c0.127-0.137,0.307-0.212,0.506-0.212c0.489,0,1.154,0.498,1.507,0.795
				c0.992,0.963,1.8,1.438,2.428,1.438c0.729,0,1.19-0.707,1.599-1.33c0.169-0.259,0.325-0.493,0.478-0.658
				c0.338-0.369,0.703-0.556,1.086-0.556c0.663,0,1.039,0.562,1.08,0.625c1.649,2.214,3.313,3.353,4.925,3.353l0,0
				c2.082-0.001,3.621-1.938,4.187-2.771c0.259-0.379,0.615-0.813,1.088-0.813c0.41,0,0.673,0.322,0.75,0.643
				c0.939,2.291,2.508,2.644,3.356,2.644c0.295,0,0.483-0.044,0.485-0.044l1.37-0.318l-5.467,7.053L10.997,21.896z"/>
			<path fill="#282828" d="M10.347,12.871c0.408,0,0.658,0.394,0.658,0.394c2.01,2.7,3.826,3.584,5.347,3.584
				c2.456,0,4.138-2.307,4.601-2.989c0.313-0.461,0.529-0.595,0.674-0.595c0.201,0,0.265,0.261,0.265,0.261
				c1.08,2.652,2.902,3.025,3.843,3.025c0.367,0,0.601-0.058,0.601-0.058l-4.443,5.729L11.192,21.41l-7.159-5.882
				c0,0-0.911-1.252-0.975-2.065c-0.016-0.205,0.063-0.281,0.191-0.281c0.38,0,1.185,0.678,1.185,0.678
				c1.184,1.149,2.066,1.556,2.75,1.556c1.339,0,1.905-1.563,2.444-2.15C9.899,12.97,10.143,12.871,10.347,12.871 M10.347,11.871
				L10.347,11.871c-0.363,0-0.91,0.124-1.455,0.718c-0.191,0.209-0.354,0.459-0.527,0.723c-0.423,0.646-0.754,1.104-1.18,1.104
				c-0.277,0-0.913-0.165-2.053-1.273l-0.026-0.024l-0.026-0.022c-0.72-0.606-1.335-0.913-1.829-0.913
				c-0.34-0.001-0.649,0.132-0.872,0.372c-0.165,0.177-0.354,0.492-0.316,0.984c0.081,1.045,0.983,2.331,1.163,2.579L3.3,16.22
				l0.099,0.081l7.159,5.882l0.244,0.201l0.314,0.023l10.699,0.813l0.536,0.041l0.329-0.425l4.443-5.729l1.76-2.27l-2.788,0.685l0,0
				c0,0-0.144,0.029-0.362,0.029c-0.878,0-2.089-0.411-2.897-2.355c-0.175-0.553-0.659-0.931-1.21-0.931
				c-0.715,0-1.198,0.589-1.5,1.032c-0.521,0.768-1.932,2.552-3.774,2.552c-1.439,0-2.963-1.063-4.528-3.159
				C11.562,12.304,11.03,11.871,10.347,11.871L10.347,11.871z"/>
		</g>
		<g>
			<radialGradient id="SVGID_1_" cx="14.2832" cy="5.3076" r="1.6864" gradientUnits="userSpaceOnUse">
				<stop  offset="0" style="stop-color:#D94A3D"/>
				<stop  offset="0.551" style="stop-color:#C43333"/>
				<stop  offset="1" style="stop-color:#9E1117"/>
			</radialGradient>
			<circle fill="url(#SVGID_1_)" cx="14.916" cy="5.678" r="1.687"/>
			<path fill="#282828" d="M14.916,4.491c0.654,0,1.186,0.532,1.186,1.188s-0.531,1.186-1.186,1.186
				c-0.655,0-1.187-0.53-1.187-1.186S14.261,4.491,14.916,4.491 M14.916,3.491c-1.206,0-2.187,0.981-2.187,2.188
				c0,1.205,0.98,2.186,2.187,2.186c1.205,0,2.186-0.98,2.186-2.186C17.102,4.473,16.121,3.491,14.916,3.491L14.916,3.491z"/>
		</g>
		<g>
			<radialGradient id="SVGID_2_" cx="2.1484" cy="8.1875" r="1.4539" gradientUnits="userSpaceOnUse">
				<stop  offset="0" style="stop-color:#D94A3D"/>
				<stop  offset="0.551" style="stop-color:#C43333"/>
				<stop  offset="1" style="stop-color:#9E1117"/>
			</radialGradient>
			<path fill="url(#SVGID_2_)" d="M3.105,9.986c-0.515,0-1.246-0.289-1.589-0.826C1.283,8.798,1.197,8.365,1.282,7.975
				c0.069-0.322,0.252-0.591,0.513-0.758C1.98,7.099,2.197,7.036,2.423,7.036c0.481,0,0.963,0.282,1.257,0.736
				c0.579,0.909,0.593,1.694,0.038,2.051C3.549,9.932,3.344,9.986,3.105,9.986z"/>
			<path fill="#282828" d="M2.423,7.536c0.303,0,0.629,0.186,0.837,0.508c0.293,0.46,0.553,1.124,0.188,1.358
				C3.357,9.46,3.238,9.486,3.105,9.486c-0.407,0-0.945-0.247-1.167-0.595C1.644,8.435,1.701,7.87,2.064,7.638
				C2.173,7.568,2.296,7.536,2.423,7.536 M2.423,6.536c-0.32,0-0.631,0.089-0.896,0.258c-0.376,0.24-0.636,0.621-0.734,1.074
				c-0.112,0.52-0.002,1.09,0.306,1.565c0.439,0.689,1.343,1.053,2.007,1.053c0.335,0,0.632-0.082,0.883-0.243
				c0.608-0.39,1.004-1.341,0.115-2.736C3.715,6.906,3.072,6.536,2.423,6.536L2.423,6.536z"/>
		</g>
		<g>
			<radialGradient id="SVGID_3_" cx="9.9639" cy="16.7813" r="11.381" gradientUnits="userSpaceOnUse">
				<stop  offset="0" style="stop-color:#D94A3D"/>
				<stop  offset="0.551" style="stop-color:#C43333"/>
				<stop  offset="1" style="stop-color:#9E1117"/>
			</radialGradient>
			<path fill="url(#SVGID_3_)" d="M15.532,25.976c-3.892,0-7.631-1.349-7.789-1.406L7.45,24.462l-0.032-0.311
				c-0.512-4.87-3.375-6.742-4.913-7.748c-0.207-0.135-0.392-0.256-0.548-0.367c-0.308-0.22-0.503-0.565-0.534-0.947
				c-0.031-0.368,0.097-0.732,0.34-0.975c0.215-0.215,0.525-0.338,0.851-0.338c0.416,0,0.802,0.19,1.057,0.521
				c1.076,1.382,5.141,4.313,7.124,4.313c0.155,0,0.292-0.019,0.406-0.056c2.213-0.713,3.065-2.517,2.609-5.515
				c-0.024-0.161-0.038-0.274-0.038-0.327c0-0.725,0.589-1.313,1.313-1.313c0.391,0,0.774,0.174,1.027,0.466
				c0.227,0.262,0.326,0.588,0.279,0.918c-0.23,1.641-0.158,3.76,0.732,4.784c0.381,0.438,0.885,0.651,1.54,0.651
				c2.624-0.054,4.569-3.702,5.989-6.366l0.29-0.542l0.094-0.067c0.179-0.129,0.523-0.345,0.826-0.345h0.247l0.242,0.232
				c0.13,0.17,0.16,0.388,0.09,0.647c-0.042,0.156-0.152,0.406-0.36,0.872c-0.778,1.737-1.143,2.811-1.085,3.193
				c0.713-0.064,1.864-1.093,2.497-1.83l0.129-0.149l0.224-0.025l0.084-0.003c0.322,0,0.576,0.125,0.717,0.352
				c0.099,0.159,0.177,0.431-0.015,0.813c-0.092,0.183-0.282,0.351-0.7,0.72c-1.297,1.145-4.332,3.823-4.189,7.482
				c0.007,0.178-0.065,0.348-0.214,0.508c-0.671,0.719-4.123,2.157-7.523,2.258C15.848,25.974,15.69,25.976,15.532,25.976z"/>
			<path fill="#282828" d="M25.863,11.398c0.094,0,0.147,0.063,0.097,0.25c-0.151,0.563-2.269,4.505-1.117,4.692
				c0.048,0.008,0.096,0.012,0.146,0.012c1.161,0,2.886-2.014,2.886-2.014s0.022-0.003,0.057-0.003c0.135,0,0.455,0.04,0.255,0.441
				c-0.251,0.5-5.13,3.628-4.942,8.445c0.018,0.444-3.597,2.139-7.252,2.246c-0.153,0.005-0.306,0.007-0.459,0.007
				c-3.848,0-7.617-1.376-7.617-1.376c-0.603-5.741-4.301-7.495-5.667-8.471c-0.411-0.293-0.418-0.876-0.133-1.16
				c0.126-0.126,0.308-0.192,0.498-0.192c0.238,0,0.489,0.104,0.66,0.326c1.058,1.357,5.257,4.508,7.521,4.508
				c0.204,0,0.393-0.025,0.561-0.08c4.123-1.328,2.917-5.93,2.917-6.317c0-0.449,0.363-0.813,0.813-0.813
				c0.449,0,0.875,0.367,0.812,0.813c-0.321,2.295-0.164,6.006,2.768,6.006c0.023,0,0.049,0,0.073-0.001
				c3.004-0.063,5.049-4.19,6.592-7.069C25.329,11.648,25.677,11.398,25.863,11.398 M25.864,10.398L25.864,10.398
				c-0.339,0-0.715,0.147-1.119,0.438l-0.188,0.136l-0.108,0.203l-0.236,0.441c-1.361,2.555-3.227,6.054-5.495,6.101l-0.053,0.001
				c-0.509,0-0.878-0.152-1.163-0.479c-0.643-0.74-0.884-2.462-0.614-4.388c0.066-0.467-0.078-0.947-0.397-1.314
				c-0.346-0.399-0.871-0.638-1.404-0.638c-1,0-1.813,0.813-1.813,1.813c0,0.064,0.014,0.204,0.044,0.402
				c0.419,2.753-0.302,4.33-2.268,4.963c-0.046,0.015-0.125,0.032-0.254,0.032c-1.753,0-5.723-2.826-6.731-4.122
				c-0.347-0.451-0.876-0.712-1.449-0.712c-0.463,0-0.891,0.172-1.204,0.484c-0.352,0.35-0.528,0.849-0.485,1.369
				c0.044,0.529,0.315,1.008,0.744,1.313c0.159,0.114,0.351,0.239,0.563,0.379c1.572,1.027,4.203,2.747,4.689,7.382l0.064,0.621
				l0.587,0.214c0.16,0.059,3.98,1.437,7.96,1.437c0.163,0,0.325-0.003,0.488-0.007c3.352-0.099,7.029-1.513,7.874-2.417
				c0.303-0.324,0.356-0.651,0.348-0.868c-0.133-3.422,2.778-5.991,4.021-7.088c0.468-0.413,0.681-0.602,0.815-0.87
				c0.311-0.621,0.129-1.082-0.007-1.302c-0.231-0.373-0.647-0.588-1.142-0.588c-0.101,0-0.167,0.009-0.167,0.009l-0.38,0.05
				l-0.269,0.293c-0.448,0.521-1.007,1.024-1.455,1.339c0.241-0.75,0.691-1.755,0.878-2.172c0.225-0.503,0.336-0.753,0.388-0.946
				c0.14-0.521-0.019-0.875-0.177-1.081C26.54,10.555,26.217,10.398,25.864,10.398L25.864,10.398z"/>
		</g>
		<g>
			<path fill="#9E1117" d="M9.483,11.041c-0.584,0-1.063-0.503-1.089-1.146C8.38,9.561,8.495,9.233,8.711,8.998
				c0.19-0.207,0.443-0.328,0.714-0.34c0,0,0.001,0,0.002,0c0.624,0,1.102,0.504,1.129,1.146c0.013,0.301-0.077,0.594-0.254,0.822
				c-0.193,0.25-0.477,0.4-0.777,0.414H9.483z"/>
			<path fill="#282828" d="M9.466,9.158c0.312,0,0.574,0.295,0.59,0.667c0.017,0.382-0.231,0.702-0.553,0.716
				c-0.007,0-0.014,0-0.02,0c-0.312,0-0.573-0.294-0.589-0.667c-0.017-0.381,0.23-0.702,0.552-0.716
				C9.453,9.158,9.459,9.158,9.466,9.158 M9.466,8.158h-0.02l-0.04,0.001C9,8.177,8.623,8.354,8.342,8.66
				C8.038,8.992,7.875,9.45,7.896,9.918c0.037,0.909,0.734,1.623,1.588,1.623h0.02l0.039-0.001c0.452-0.02,0.872-0.24,1.155-0.607
				c0.249-0.322,0.376-0.73,0.357-1.15C11.018,8.872,10.319,8.158,9.466,8.158L9.466,8.158z"/>
		</g>
		<g>
			<radialGradient id="SVGID_4_" cx="26.1504" cy="6.4131" r="1.5419" gradientUnits="userSpaceOnUse">
				<stop  offset="0" style="stop-color:#D94A3D"/>
				<stop  offset="0.551" style="stop-color:#C43333"/>
				<stop  offset="1" style="stop-color:#9E1117"/>
			</radialGradient>
			<path fill="url(#SVGID_4_)" d="M26.27,8.344c-0.175,0-0.335-0.03-0.475-0.089c-0.235-0.099-0.41-0.274-0.506-0.509
				c-0.155-0.383-0.09-0.903,0.201-1.592c0.244-0.583,0.803-0.977,1.389-0.977c0.177,0,0.348,0.034,0.509,0.103
				c0.717,0.304,1.034,1.186,0.71,1.966C27.82,7.903,26.929,8.344,26.27,8.344z"/>
			<path fill="#282828" d="M26.88,5.678c0.105,0,0.213,0.021,0.314,0.063c0.465,0.197,0.661,0.784,0.441,1.313
				c-0.186,0.439-0.871,0.79-1.366,0.79c-0.104,0-0.201-0.016-0.282-0.05c-0.466-0.195-0.261-0.914-0.036-1.445
				C26.124,5.935,26.501,5.678,26.88,5.678 M26.88,4.678L26.88,4.678c-0.799,0-1.525,0.505-1.852,1.285
				c-0.349,0.825-0.413,1.453-0.202,1.972c0.145,0.355,0.42,0.633,0.774,0.781c0.203,0.085,0.428,0.128,0.669,0.128
				c0.834,0,1.917-0.524,2.287-1.401c0.432-1.037-0.005-2.212-0.972-2.622C27.358,4.726,27.122,4.678,26.88,4.678L26.88,4.678z"/>
		</g>
	</g>
</g>
</svg>
