<?xml version="1.0" encoding="utf-8"?>
<!-- Generator: Adobe Illustrator 16.0.0, SVG Export Plug-In . SVG Version: 6.00 Build 0)  -->
<!DOCTYPE svg PUBLIC "-//W3C//DTD SVG 1.1//EN" "http://www.w3.org/Graphics/SVG/1.1/DTD/svg11.dtd">
<svg version="1.1" xmlns="http://www.w3.org/2000/svg" xmlns:xlink="http://www.w3.org/1999/xlink" x="0px" y="0px" width="30px"
	 height="30px" viewBox="0 0 30 30" enable-background="new 0 0 30 30" xml:space="preserve">
<g id="Layer_2">
</g>
<g id="Layer_3">
</g>
<g id="Layer_1">
	<line fill="none" stroke="#282828" stroke-width="2" stroke-miterlimit="10" x1="15.554" y1="19.314" x2="15.554" y2="30.621"/>
	<g>
		<g>
			
				<linearGradient id="SVGID_1_" gradientUnits="userSpaceOnUse" x1="17.4512" y1="4.0654" x2="19.6081" y2="11.054" gradientTransform="matrix(0.7071 0.7071 -0.7071 0.7071 13.0145 -7.1547)">
				<stop  offset="0" style="stop-color:#C43333"/>
				<stop  offset="1" style="stop-color:#800F17"/>
			</linearGradient>
			<path fill="url(#SVGID_1_)" d="M24.261,13.167c0,0,0.733-1.156,0.854-4.248c0.052-1.311-0.312-5-0.312-5l-9.792,9.792
				l4.354,4.353L24.261,13.167z"/>
			<g>
				
					<linearGradient id="SVGID_2_" gradientUnits="userSpaceOnUse" x1="16.166" y1="9.8877" x2="22.3223" y2="9.8877" gradientTransform="matrix(0.7071 0.7071 -0.7071 0.7071 13.0145 -7.1547)">
					<stop  offset="0.0663" style="stop-color:#D8524C"/>
					<stop  offset="0.2753" style="stop-color:#D14A46"/>
					<stop  offset="0.5929" style="stop-color:#BE3535"/>
					<stop  offset="0.9778" style="stop-color:#A01319"/>
					<stop  offset="1" style="stop-color:#9E1117"/>
				</linearGradient>
				<path fill="url(#SVGID_2_)" d="M24.261,13.167c0,0-2.454,1.504-5.197,1.355C17.186,14.422,15,13.722,15,13.722l4.354,4.353
					L24.261,13.167z"/>
			</g>
		</g>
		<g>
			
				<linearGradient id="SVGID_3_" gradientUnits="userSpaceOnUse" x1="213.3838" y1="-385.8286" x2="215.541" y2="-378.8391" gradientTransform="matrix(0.7071 -0.7071 0.7071 0.7071 131.2721 429.9425)">
				<stop  offset="0" style="stop-color:#C43333"/>
				<stop  offset="1" style="stop-color:#800F17"/>
			</linearGradient>
			<path fill="url(#SVGID_3_)" d="M14.446,4.461c0,0-1.156-0.733-4.249-0.854c-1.311-0.052-5,0.311-5,0.311l9.793,9.793l4.353-4.354
				L14.446,4.461z"/>
			<g>
				
					<linearGradient id="SVGID_4_" gradientUnits="userSpaceOnUse" x1="212.0986" y1="-380.0029" x2="218.2549" y2="-380.0029" gradientTransform="matrix(0.7071 -0.7071 0.7071 0.7071 131.2721 429.9425)">
					<stop  offset="0.0663" style="stop-color:#D8524C"/>
					<stop  offset="0.2753" style="stop-color:#D14A46"/>
					<stop  offset="0.5929" style="stop-color:#BE3535"/>
					<stop  offset="0.9778" style="stop-color:#A01319"/>
					<stop  offset="1" style="stop-color:#9E1117"/>
				</linearGradient>
				<path fill="url(#SVGID_4_)" d="M14.446,4.461c0,0,1.503,2.454,1.355,5.197C15.7,11.536,15,13.722,15,13.722l4.354-4.354
					L14.446,4.461z"/>
			</g>
		</g>
		<g>
			
				<linearGradient id="SVGID_5_" gradientUnits="userSpaceOnUse" x1="603.2744" y1="-189.8916" x2="605.4314" y2="-182.903" gradientTransform="matrix(-0.7071 -0.7071 0.7071 -0.7071 568.3691 311.684)">
				<stop  offset="0" style="stop-color:#C43333"/>
				<stop  offset="1" style="stop-color:#800F17"/>
			</linearGradient>
			<path fill="url(#SVGID_5_)" d="M5.74,14.275c0,0-0.733,1.156-0.854,4.248c-0.053,1.312,0.313,4.999,0.313,4.999l9.791-9.791
				l-4.354-4.353L5.74,14.275z"/>
			<g>
				
					<linearGradient id="SVGID_6_" gradientUnits="userSpaceOnUse" x1="601.9873" y1="-184.0713" x2="608.1436" y2="-184.0713" gradientTransform="matrix(-0.7071 -0.7071 0.7071 -0.7071 568.3691 311.684)">
					<stop  offset="0.0663" style="stop-color:#D8524C"/>
					<stop  offset="0.2753" style="stop-color:#D14A46"/>
					<stop  offset="0.5929" style="stop-color:#BE3535"/>
					<stop  offset="0.9778" style="stop-color:#A01319"/>
					<stop  offset="1" style="stop-color:#9E1117"/>
				</linearGradient>
				<path fill="url(#SVGID_6_)" d="M5.74,14.275c0,0,2.454-1.504,5.197-1.355C12.814,13.021,15,13.722,15,13.722l-4.353-4.354
					L5.74,14.275z"/>
			</g>
		</g>
		<g>
			
				<linearGradient id="SVGID_7_" gradientUnits="userSpaceOnUse" x1="407.3418" y1="199.9971" x2="409.4987" y2="206.9856" gradientTransform="matrix(-0.7071 0.7071 -0.7071 -0.7071 450.1118 -125.4137)">
				<stop  offset="0" style="stop-color:#C43333"/>
				<stop  offset="1" style="stop-color:#800F17"/>
			</linearGradient>
			<path fill="url(#SVGID_7_)" d="M15.554,22.98c0,0,1.157,0.734,4.249,0.854c1.311,0.052,5-0.313,5-0.313l-9.792-9.791
				l-4.353,4.354L15.554,22.98z"/>
			<g>
				
					<linearGradient id="SVGID_8_" gradientUnits="userSpaceOnUse" x1="406.0576" y1="205.8184" x2="412.2139" y2="205.8184" gradientTransform="matrix(-0.7071 0.7071 -0.7071 -0.7071 450.1118 -125.4137)">
					<stop  offset="0.0663" style="stop-color:#D8524C"/>
					<stop  offset="0.2753" style="stop-color:#D14A46"/>
					<stop  offset="0.5929" style="stop-color:#BE3535"/>
					<stop  offset="0.9778" style="stop-color:#A01319"/>
					<stop  offset="1" style="stop-color:#9E1117"/>
				</linearGradient>
				<path fill="url(#SVGID_8_)" d="M15.554,22.98c0,0-1.503-2.453-1.354-5.196c0.1-1.878,0.801-4.063,0.801-4.063l-4.353,4.353
					L15.554,22.98z"/>
			</g>
		</g>
		<g>
			<g>
				<path fill="#282828" d="M9.905,3.603c0.106,0,0.205,0.001,0.292,0.005c3.093,0.12,4.249,0.854,4.249,0.854l4.896,4.896
					l0.011,0.011l5.449-5.449c0,0,0.363,3.689,0.312,5c-0.12,3.092-0.854,4.248-0.854,4.248l-4.896,4.896l-0.011,0.011l5.449,5.448
					c0,0-3.216,0.317-4.71,0.317c-0.105,0-0.203-0.001-0.29-0.005c-3.092-0.12-4.249-0.854-4.249-0.854l-4.896-4.896l-0.011-0.011
					l-5.448,5.448c0,0-0.365-3.688-0.313-4.999c0.12-3.092,0.854-4.248,0.854-4.248l4.896-4.896l0.011-0.011l-5.45-5.45
					C5.197,3.918,8.411,3.603,9.905,3.603 M15.01,13.689l-0.02,0.021L15,13.722c0,0-0.012-0.004-0.031-0.011l0.021,0.021l0.01-0.01
					c0,0-0.003,0.012-0.01,0.031l0.021-0.021L15,13.722c0,0,0.012,0.003,0.032,0.01l-0.021-0.021L15,13.722
					C15,13.722,15.004,13.709,15.01,13.689 M25.591,1.717l-1.495,1.495l-4.742,4.742l-4.2-4.2l-0.078-0.078l-0.094-0.06
					c-0.141-0.09-1.478-0.881-4.745-1.008c-0.099-0.004-0.21-0.006-0.331-0.006l0,0l0,0c-1.525,0-4.673,0.307-4.806,0.32L2.994,3.13
					L4.49,4.625l4.743,4.743l-4.2,4.2l-0.078,0.078l-0.06,0.093c-0.09,0.143-0.881,1.479-1.008,4.745
					c-0.055,1.364,0.301,4.983,0.316,5.137l0.208,2.103l1.494-1.494l4.741-4.741l4.199,4.199l0.078,0.078l0.093,0.06
					c0.142,0.09,1.479,0.882,4.746,1.009c0.099,0.004,0.209,0.006,0.329,0.006c1.525,0,4.675-0.31,4.809-0.322l2.104-0.208
					l-1.495-1.494l-4.742-4.741l4.2-4.2l0.078-0.078l0.06-0.094c0.09-0.142,0.881-1.478,1.008-4.744
					c0.054-1.363-0.3-4.983-0.315-5.137L25.591,1.717L25.591,1.717z"/>
			</g>
		</g>
	</g>
	<circle fill="#282828" cx="15.011" cy="13.711" r="1.366"/>
</g>
</svg>
