<?xml version="1.0" encoding="utf-8"?>
<!-- Generator: Adobe Illustrator 16.0.0, SVG Export Plug-In . SVG Version: 6.00 Build 0)  -->
<!DOCTYPE svg PUBLIC "-//W3C//DTD SVG 1.1//EN" "http://www.w3.org/Graphics/SVG/1.1/DTD/svg11.dtd">
<svg version="1.1" xmlns="http://www.w3.org/2000/svg" xmlns:xlink="http://www.w3.org/1999/xlink" x="0px" y="0px" width="30px"
	 height="30px" viewBox="0 0 30 30" enable-background="new 0 0 30 30" xml:space="preserve">
<g id="Layer_2">
</g>
<g id="Layer_3">
</g>
<g id="Layer_1">
	<g>
		<g>
			<path fill="#C43333" d="M24.065,13.34c-2.568-1.309-5.138-2.618-7.702-3.928c-2.618-1.331-5.479-2.044-8.401-1.429
				C6.349,8.322,4.837,9.027,3.497,9.979c-1.107,0.791-2.45,1.968-2.408,3.467c0.042,0.571-0.034,1.801-0.002,2.586
				c0.078,2.024,1.688,3.074,1.688,3.074l5.884,3.187c0,0,3.774,2.007,3.85,1.956c0.759-0.519,1.52-1.037,2.283-1.555
				c0.359-0.243,0.718-0.487,1.077-0.731c0.208-0.145,0.13-0.337,0.13-0.593c-0.002-0.64-0.003-1.277-0.005-1.919
				c-0.001-0.405,0.104-0.563-0.246-0.743c-0.911-0.467-1.828-0.93-2.739-1.393c-1.808-0.921-3.652-1.777-5.398-2.805
				c2.334-1.302,4.585-0.024,6.693,1.054c1.414,0.718,6.101,3.311,6.294,3.178c0.755-0.514,1.512-1.027,2.265-1.54
				c0.359-0.246,0.718-0.493,1.077-0.737c0.192-0.129,0.131-0.244,0.13-0.481C24.068,15.102,24.066,14.218,24.065,13.34z"/>
		</g>
	</g>

	<g>
		<polygon fill="#808080" points="20.567,15.676 17.56,14.142 17.56,17.409 20.574,18.834 		"/>
		<path fill="#800F17" d="M12.61,11.659c-1.818-0.913-4.265-1.297-5.864,0.438c-0.82,0.89-0.427,2.841-0.425,3.949
			c0-1.441,2.327-1.997,3.431-2.014c1.094-0.006,2.188,0.44,3.148,0.922c1.568,0.787,3.137,1.574,4.706,2.361
			c0-0.767,0-1.533,0-2.301c0-0.763,0.019-0.84,0.019-0.84S14.088,12.413,12.61,11.659z"/>
	</g>
	<g>
		<polygon fill="#666666" points="24.065,13.34 24.069,16.376 20.574,18.755 20.567,15.72 		"/>
	</g>
	<g>
		<polygon fill="#808080" points="16.146,18.834 16.152,21.874 12.5,24.254 12.5,21.212 		"/>
	</g>
	<g>
		<polygon fill="#ABABAB" points="12.5,21.281 16.148,18.879 13.139,17.345 9.603,19.746 		"/>
		<path fill="#C43333" d="M16.18,9.186C11.647,6.881,7.328,7.342,3.761,9.769c-3.569,2.428-3.838,5.044,0.833,7.424l5.009,2.554
			l3.536-2.401l-5.137-2.617c-2.027-1.035-2.043-2.112-0.667-3.092c1.292-0.92,3.156-0.976,5.243,0.087l5.047,2.577l3.689-2.493
			L16.18,9.186z"/>
		<polygon fill="#ABABAB" points="24.305,13.328 21.314,11.807 17.625,14.3 20.6,15.763 		"/>
	</g>
	<g>
		<polygon fill="#919191" points="12.5,21.281 9.535,19.702 9.535,22.831 12.5,24.345 		"/>
		<path fill="#B02427" d="M4.556,17.165c-0.275-0.142-0.526-0.277-0.769-0.422c-0.058-0.034-0.111-0.067-0.166-0.102
			c-0.181-0.112-0.354-0.225-0.513-0.336c-0.05-0.031-0.103-0.068-0.15-0.099c-0.19-0.141-0.37-0.281-0.533-0.418
			c-0.025-0.022-0.044-0.045-0.069-0.067c-0.135-0.117-0.257-0.241-0.37-0.359c-0.038-0.044-0.072-0.082-0.108-0.12
			c-0.107-0.126-0.202-0.243-0.288-0.369c-0.012-0.021-0.029-0.04-0.045-0.061c-0.091-0.14-0.164-0.28-0.229-0.417
			c-0.025-0.059-0.045-0.112-0.067-0.174c-0.035-0.095-0.067-0.186-0.091-0.281c-0.016-0.062-0.024-0.12-0.035-0.178
			c-0.021-0.129-0.039-0.251-0.039-0.377l-0.112,3.039c0,0.077,0.12,0.149,0.127,0.224c0.006,0.05,0.021,0.099,0.03,0.148
			c0.008,0.06,0.02,0.121,0.033,0.182c0.023,0.095,0.059,0.189,0.092,0.284c0.022,0.055,0.041,0.116,0.067,0.171
			c0.011,0.018,0.014,0.039,0.021,0.061c0.061,0.115,0.129,0.237,0.208,0.358c0.014,0.022,0.033,0.046,0.051,0.069
			c0.081,0.115,0.176,0.236,0.278,0.357c0.038,0.042,0.075,0.083,0.113,0.125c0.11,0.117,0.146,0.278,0.275,0.392
			c0.029,0.023,0.055,0.051,0.084,0.076c0.158,0.139,0.354,0.304,0.541,0.441c0.055,0.036,0.176,0.002,0.232,0.045
			c0.151,0.103,0.314,0.205,0.483,0.314c0.065,0.039,0.129,0.077,0.196,0.115c0.222,0.132,0.45,0.261,0.698,0.387
			c0.021,0.013,0.041,0.02,0.06,0.033l5.04,2.717v-3.179L4.556,17.165z"/>
	</g>
	<g>
		<path fill="#282828" d="M10.122,7.76c2.166,0,4.272,0.651,6.241,1.652c2.564,1.31,5.134,2.619,7.702,3.928
			c0.001,0.878,0.003,1.762,0.003,2.644c0.001,0.237,0.063,0.353-0.13,0.481c-0.359,0.244-0.718,0.491-1.077,0.737
			c-0.753,0.513-1.51,1.026-2.265,1.54c-0.005,0.003-0.013,0.005-0.022,0.005c-0.402,0-4.893-2.482-6.271-3.183
			c-1.474-0.753-3.016-1.604-4.608-1.604c-0.687,0-1.382,0.157-2.085,0.55c1.746,1.027,3.591,1.884,5.398,2.805
			c0.911,0.463,1.828,0.926,2.739,1.393c0.351,0.18,0.245,0.338,0.246,0.743c0.002,0.642,0.003,1.279,0.005,1.919
			c0,0.256,0.078,0.448-0.13,0.593c-0.359,0.244-0.718,0.488-1.077,0.731c-0.764,0.518-1.524,1.036-2.283,1.555
			c-0.001,0.001-0.002,0.001-0.005,0.001c-0.164,0-3.845-1.957-3.845-1.957l-5.884-3.187c0,0-1.609-1.05-1.688-3.074
			c-0.032-0.785,0.044-2.015,0.002-2.586c-0.042-1.499,1.301-2.676,2.408-3.467c1.34-0.952,2.852-1.657,4.465-1.996
			C8.687,7.831,9.408,7.76,10.122,7.76 M10.122,6.76c-0.798,0-1.595,0.083-2.366,0.245C6.062,7.36,4.434,8.087,2.918,9.164
			c-0.717,0.512-2.892,2.065-2.829,4.311c0.021,0.291,0.012,0.754,0.002,1.202c-0.01,0.483-0.021,0.983-0.003,1.396
			c0.097,2.51,2.057,3.816,2.141,3.871l0.034,0.021l0.035,0.02l5.884,3.187c3.908,2.078,4.021,2.078,4.321,2.078h0.309l0.259-0.175
			c0.76-0.519,1.52-1.036,2.281-1.553l0.768-0.521l0.311-0.211c0.639-0.443,0.59-1.109,0.573-1.329
			c-0.002-0.028-0.005-0.059-0.005-0.091l-0.002-0.963l-0.003-0.959c0-0.061,0.004-0.114,0.007-0.162
			c0.017-0.281,0.062-1.028-0.797-1.468c-0.638-0.327-1.277-0.651-1.917-0.976l-0.825-0.419c-0.497-0.253-0.998-0.502-1.498-0.751
			c-0.351-0.174-0.704-0.35-1.059-0.527c0.877,0.247,1.773,0.709,2.65,1.159l0.293,0.15c0.397,0.202,1.051,0.551,1.79,0.944
			c3.995,2.131,4.502,2.348,4.937,2.348h0.311l0.278-0.181l0.992-0.675l1.269-0.863l0.343-0.234l0.733-0.502
			c0.625-0.419,0.585-1.035,0.572-1.238l-0.004-0.074l-0.002-1.769l-0.001-0.872l-0.001-0.612l-0.545-0.277
			c-2.568-1.309-5.138-2.618-7.701-3.928C14.519,7.353,12.266,6.76,10.122,6.76L10.122,6.76z"/>
	</g>
	<g>
		<path fill="#B3B3B3" d="M21.924,19.911c1.122,0.664,1.277,1.626,0.209,2.381c-1.073,0.758-3.022,1.063-4.76,0.836l0.501-0.354
			c1.314,0.123,2.746-0.134,3.55-0.702c0.801-0.565,0.75-1.284-0.002-1.805L21.924,19.911z"/>
	</g>
	<g>
		<path fill="#B3B3B3" d="M24.24,19.658l0.883-0.088c1.154,1.077,1.08,2.42-0.463,3.511c-1.544,1.09-4.156,1.646-6.718,1.563
			l-0.17-0.415c2.34,0.119,4.765-0.369,6.179-1.369C25.363,21.862,25.383,20.624,24.24,19.658z"/>
	</g>
	<g>
		<path fill="#B3B3B3" d="M27.665,19.315l0.861-0.085c1.27,1.497,0.996,3.267-1.066,4.724c-2.066,1.46-5.433,2.265-8.866,2.295
			l-0.167-0.405c3.219-0.004,6.391-0.743,8.325-2.11C28.682,22.369,28.905,20.71,27.665,19.315z"/>
	</g>

</g>
</svg>
