<?xml version="1.0" encoding="utf-8"?>
<!-- Generator: Adobe Illustrator 16.0.0, SVG Export Plug-In . SVG Version: 6.00 Build 0)  -->
<!DOCTYPE svg PUBLIC "-//W3C//DTD SVG 1.1//EN" "http://www.w3.org/Graphics/SVG/1.1/DTD/svg11.dtd">
<svg version="1.1" xmlns="http://www.w3.org/2000/svg" xmlns:xlink="http://www.w3.org/1999/xlink" x="0px" y="0px" width="30px"
	 height="30px" viewBox="0 0 30 30" enable-background="new 0 0 30 30" xml:space="preserve">
<g id="Layer_2">
</g>
<g id="Layer_3">
</g>
<g id="Layer_1">
	<g>
		<g>
			<radialGradient id="SVGID_1_" cx="15.001" cy="15.7607" r="13.1755" gradientUnits="userSpaceOnUse">
				<stop  offset="0" style="stop-color:#C43333"/>
				<stop  offset="0.3188" style="stop-color:#BD2D2E"/>
				<stop  offset="0.783" style="stop-color:#AA1B1F"/>
				<stop  offset="1" style="stop-color:#9E1117"/>
			</radialGradient>
			<path fill="url(#SVGID_1_)" d="M14.878,28.057c-0.393,0-0.743-0.268-0.964-0.733l-2.646-5.65
				c-0.206-0.444-0.196-0.897,0.026-1.246c0.222-0.348,0.627-0.547,1.112-0.547l0.852,0.004v-6.88L7.294,9.559l-0.372,0.637
				c-0.254,0.438-0.646,0.688-1.076,0.688c-0.403,0-0.774-0.217-1.046-0.609L1.265,5.134C0.882,4.573,0.998,4.161,1.102,3.966
				c0.167-0.318,0.519-0.5,0.965-0.5c0.054,0,0.111,0.003,0.171,0.008L8.451,4.01C8.934,4.049,9.322,4.28,9.515,4.646
				c0.192,0.367,0.163,0.821-0.081,1.246L9.001,6.628l5.959,3.44l5.967-3.448l-0.364-0.64c-0.242-0.425-0.27-0.88-0.074-1.245
				c0.194-0.365,0.586-0.594,1.072-0.629l6.212-0.493c0.053-0.005,0.102-0.006,0.149-0.006c0.454,0,0.812,0.184,0.979,0.506
				c0.103,0.196,0.218,0.609-0.17,1.168l-3.575,5.114c-0.27,0.389-0.64,0.603-1.042,0.603l0,0c-0.433,0-0.827-0.253-1.081-0.694
				L22.61,9.564l-5.96,3.443v6.889l0.741,0.006c0.487,0.001,0.895,0.203,1.114,0.554c0.221,0.35,0.227,0.802,0.017,1.242
				l-2.685,5.629C15.526,27.985,15.063,28.057,14.878,28.057z"/>
			<path fill="#282828" d="M2.066,3.966c0.04,0,0.081,0.002,0.125,0.006l6.217,0.536C9.064,4.561,9.328,5.072,9,5.643L8.314,6.809
				l6.646,3.837l6.647-3.841l-0.61-1.071c-0.325-0.57-0.059-1.081,0.599-1.128l6.217-0.494c0.038-0.003,0.074-0.004,0.109-0.004
				c0.567,0,0.752,0.38,0.398,0.889l-3.574,5.113c-0.181,0.26-0.408,0.389-0.632,0.389c-0.241,0-0.478-0.148-0.647-0.443
				l-0.672-1.174l-6.645,3.838v7.674l1.237,0.01c0.659,0.002,0.966,0.488,0.684,1.081l-2.685,5.629
				c-0.141,0.297-0.325,0.444-0.509,0.444c-0.186,0-0.371-0.149-0.512-0.447l-2.646-5.648c-0.277-0.597,0.032-1.081,0.686-1.081
				c0.001,0,0.001,0,0.002,0l1.35,0.007v-7.672L7.113,8.877L6.49,9.943c-0.17,0.293-0.405,0.44-0.645,0.44
				c-0.225,0-0.453-0.131-0.635-0.394l-3.534-5.14C1.331,4.345,1.511,3.966,2.066,3.966 M2.066,2.966L2.066,2.966
				c-0.638,0-1.15,0.279-1.407,0.766C0.394,4.234,0.464,4.848,0.851,5.414l3.536,5.143c0.363,0.526,0.895,0.827,1.459,0.827
				c0.612,0,1.162-0.342,1.509-0.938l0.12-0.206l5.283,3.052v6.09l-0.345-0.002c-0.666,0-1.226,0.283-1.541,0.777
				c-0.315,0.495-0.337,1.124-0.059,1.725l2.647,5.651c0.437,0.924,1.136,1.023,1.417,1.023c0.28,0,0.979-0.1,1.412-1.017
				l2.684-5.626c0.285-0.599,0.269-1.227-0.044-1.725c-0.313-0.498-0.875-0.785-1.539-0.787L17.15,19.4v-6.104l5.275-3.047
				l0.173,0.303c0.347,0.603,0.898,0.946,1.516,0.946c0.563,0,1.092-0.298,1.453-0.818l3.572-5.11
				C29.535,5,29.608,4.386,29.345,3.881c-0.258-0.492-0.776-0.773-1.423-0.773c-0.06,0-0.122,0.002-0.187,0.007l-6.219,0.494
				c-0.653,0.047-1.191,0.372-1.47,0.891c-0.278,0.521-0.248,1.151,0.081,1.729l0.118,0.208L14.96,9.49L9.688,6.446l0.175-0.297
				c0.336-0.585,0.369-1.215,0.095-1.736c-0.273-0.521-0.81-0.849-1.469-0.902L2.277,2.976C2.207,2.969,2.135,2.966,2.066,2.966
				L2.066,2.966z"/>
		</g>
	</g>
</g>
</svg>
