<?xml version="1.0" encoding="utf-8"?>
<!-- Generator: Adobe Illustrator 18.1.1, SVG Export Plug-In . SVG Version: 6.00 Build 0)  -->
<svg version="1.1" xmlns="http://www.w3.org/2000/svg" xmlns:xlink="http://www.w3.org/1999/xlink" x="0px" y="0px" width="30px"
	 height="30px" viewBox="0 0 30 30" enable-background="new 0 0 30 30" xml:space="preserve">
<g id="Layer_2">
</g>
<g id="Layer_3">
</g>
<g id="Layer_1">
	<g>
		<g>
			
				<line fill="none" stroke="#DEDEDE" stroke-linecap="round" stroke-miterlimit="10" x1="11.102" y1="7.32" x2="15.048" y2="9.285"/>
			<g>
				<polygon fill="#DEDEDE" points="13.919,10.505 17.104,10.308 15.341,7.649 				"/>
			</g>
		</g>
	</g>
	<g>
		<g>
			
				<line fill="none" stroke="#DEDEDE" stroke-linecap="round" stroke-miterlimit="10" x1="11.102" y1="19.32" x2="15.048" y2="21.285"/>
			<g>
				<polygon fill="#DEDEDE" points="13.919,22.505 17.104,22.308 15.341,19.649 				"/>
			</g>
		</g>
	</g>
	<g>
		<path fill="none" stroke="#B02427" stroke-width="2" stroke-miterlimit="10" d="M26.135,7.809c0.28,3.37,0.588,6.755-2.096,8.498
			c-5.322,3.456-11.751-6.442-17.073-2.986C4.23,15.099,4.6,18.578,4.882,22.01"/>
		<g>
			<rect x="3.72" y="8.707" fill="#303030" width="6.203" height="6.203"/>
			<rect x="4.806" y="9.792" fill="#303030" stroke="#B02427" stroke-miterlimit="10" width="4.032" height="4.032"/>
		</g>
		<g>
			<rect x="18.157" y="13.903" fill="#303030" width="6.203" height="6.203"/>
			<rect x="19.242" y="14.988" fill="#303030" stroke="#B02427" stroke-miterlimit="10" width="4.032" height="4.032"/>
		</g>
		<g>
			<rect x="22.093" y="2.606" fill="#303030" width="6.203" height="6.203"/>
			<rect x="23.178" y="3.692" fill="#303030" stroke="#B02427" stroke-miterlimit="10" width="4.032" height="4.032"/>
		</g>
		<g>
			<rect x="1.704" y="21.191" fill="#303030" width="6.203" height="6.203"/>
			<rect x="2.79" y="22.276" fill="#303030" stroke="#B02427" stroke-miterlimit="10" width="4.032" height="4.032"/>
		</g>
	</g>
</g>
</svg>
