{"asset":{"version":"2.0","generator":"babylon.js glTF exporter for Autodesk Maya 2018.7 v20240312.5"},"scene":0,"scenes":[{"nodes":[0]}],"nodes":[{"children":[1,2,3,4,5,6,7],"name":"Road2"},{"mesh":0,"name":"Ground"},{"mesh":1,"name":"Road1"},{"mesh":2,"name":"obj1"},{"mesh":3,"name":"Panda1"},{"mesh":4,"name":"Chair"},{"mesh":5,"name":"obJ2"},{"mesh":6,"name":"Snowman1"}],"meshes":[{"primitives":[{"attributes":{"POSITION":1,"TANGENT":2,"NORMAL":3,"TEXCOORD_0":4},"indices":0,"material":0}],"name":"Ground"},{"primitives":[{"attributes":{"POSITION":6,"TANGENT":7,"NORMAL":8,"TEXCOORD_0":9},"indices":5,"material":1}],"name":"Road1"},{"primitives":[{"attributes":{"POSITION":11,"TANGENT":12,"NORMAL":13,"TEXCOORD_0":14},"indices":10,"material":2}],"name":"obj1"},{"primitives":[{"attributes":{"POSITION":16,"TANGENT":17,"NORMAL":18,"TEXCOORD_0":19},"indices":15,"material":3}],"name":"Panda1"},{"primitives":[{"attributes":{"POSITION":21,"TANGENT":22,"NORMAL":23,"TEXCOORD_0":24},"indices":20,"material":4}],"name":"Chair"},{"primitives":[{"attributes":{"POSITION":26,"TANGENT":27,"NORMAL":28,"TEXCOORD_0":29},"indices":25,"material":2}],"name":"obJ2"},{"primitives":[{"attributes":{"POSITION":31,"TANGENT":32,"NORMAL":33,"TEXCOORD_0":34},"indices":30,"material":5}],"name":"Snowman1"}],"accessors":[{"bufferView":0,"componentType":5123,"count":1680,"type":"SCALAR","name":"accessorIndices"},{"bufferView":1,"componentType":5126,"count":319,"max":[2.46842575,0.00480564171,8.55828],"min":[-2.46842575,-0.008658997,-8.588021],"type":"VEC3","name":"accessorPositions"},{"bufferView":2,"componentType":5126,"count":319,"type":"VEC4","name":"accessorTangents"},{"bufferView":1,"byteOffset":3828,"componentType":5126,"count":319,"type":"VEC3","name":"accessorNormals"},{"bufferView":3,"componentType":5126,"count":319,"type":"VEC2","name":"accessorUVs"},{"bufferView":0,"byteOffset":3360,"componentType":5123,"count":64008,"type":"SCALAR","name":"accessorIndices"},{"bufferView":1,"byteOffset":7656,"componentType":5126,"count":17830,"max":[4.38196,0.294089675,8.609163],"min":[-4.38196,-0.08837476,-8.584209],"type":"VEC3","name":"accessorPositions"},{"bufferView":2,"byteOffset":5104,"componentType":5126,"count":17830,"type":"VEC4","name":"accessorTangents"},{"bufferView":1,"byteOffset":221616,"componentType":5126,"count":17830,"type":"VEC3","name":"accessorNormals"},{"bufferView":3,"byteOffset":2552,"componentType":5126,"count":17830,"type":"VEC2","name":"accessorUVs"},{"bufferView":0,"byteOffset":131376,"componentType":5123,"count":80088,"type":"SCALAR","name":"accessorIndices"},{"bufferView":1,"byteOffset":435576,"componentType":5126,"count":16559,"max":[-2.64914966,1.38989127,5.881669],"min":[-3.35931778,0.210109159,5.09648228],"type":"VEC3","name":"accessorPositions"},{"bufferView":2,"byteOffset":290384,"componentType":5126,"count":16559,"type":"VEC4","name":"accessorTangents"},{"bufferView":1,"byteOffset":634284,"componentType":5126,"count":16559,"type":"VEC3","name":"accessorNormals"},{"bufferView":3,"byteOffset":145192,"componentType":5126,"count":16559,"type":"VEC2","name":"accessorUVs"},{"bufferView":0,"byteOffset":291552,"componentType":5123,"count":8268,"type":"SCALAR","name":"accessorIndices"},{"bufferView":1,"byteOffset":832992,"componentType":5126,"count":1706,"max":[-2.48703861,1.183545,1.27390254],"min":[-3.32877374,0.810326159,0.593663335],"type":"VEC3","name":"accessorPositions"},{"bufferView":2,"byteOffset":555328,"componentType":5126,"count":1706,"type":"VEC4","name":"accessorTangents"},{"bufferView":1,"byteOffset":853464,"componentType":5126,"count":1706,"type":"VEC3","name":"accessorNormals"},{"bufferView":3,"byteOffset":277664,"componentType":5126,"count":1706,"type":"VEC2","name":"accessorUVs"},{"bufferView":0,"byteOffset":308088,"componentType":5123,"count":7296,"type":"SCALAR","name":"accessorIndices"},{"bufferView":1,"byteOffset":873936,"componentType":5126,"count":2101,"max":[-2.33553076,1.62236261,2.1000154],"min":[-3.62605214,0.218925908,-0.6042592],"type":"VEC3","name":"accessorPositions"},{"bufferView":2,"byteOffset":582624,"componentType":5126,"count":2101,"type":"VEC4","name":"accessorTangents"},{"bufferView":1,"byteOffset":899148,"componentType":5126,"count":2101,"type":"VEC3","name":"accessorNormals"},{"bufferView":3,"byteOffset":291312,"componentType":5126,"count":2101,"type":"VEC2","name":"accessorUVs"},{"bufferView":0,"byteOffset":322680,"componentType":5123,"count":80088,"type":"SCALAR","name":"accessorIndices"},{"bufferView":1,"byteOffset":924360,"componentType":5126,"count":16559,"max":[3.40811,1.38989127,-5.30949926],"min":[2.74313617,0.210109159,-5.96220636],"type":"VEC3","name":"accessorPositions"},{"bufferView":2,"byteOffset":616240,"componentType":5126,"count":16559,"type":"VEC4","name":"accessorTangents"},{"bufferView":1,"byteOffset":1123068,"componentType":5126,"count":16559,"type":"VEC3","name":"accessorNormals"},{"bufferView":3,"byteOffset":308120,"componentType":5126,"count":16559,"type":"VEC2","name":"accessorUVs"},{"bufferView":0,"byteOffset":482856,"componentType":5123,"count":36894,"type":"SCALAR","name":"accessorIndices"},{"bufferView":1,"byteOffset":1321776,"componentType":5126,"count":8578,"max":[-2.3076818,2.76085353,-1.26055062],"min":[-3.69459224,0.117038727,-3.49923539],"type":"VEC3","name":"accessorPositions"},{"bufferView":2,"byteOffset":881184,"componentType":5126,"count":8578,"type":"VEC4","name":"accessorTangents"},{"bufferView":1,"byteOffset":1424712,"componentType":5126,"count":8578,"type":"VEC3","name":"accessorNormals"},{"bufferView":3,"byteOffset":440592,"componentType":5126,"count":8578,"type":"VEC2","name":"accessorUVs"}],"bufferViews":[{"buffer":0,"byteLength":556644,"name":"bufferViewScalar"},{"buffer":0,"byteOffset":556644,"byteLength":1527648,"byteStride":12,"name":"bufferViewFloatVec3"},{"buffer":0,"byteOffset":2084292,"byteLength":1018432,"byteStride":16,"name":"bufferViewFloatVec4"},{"buffer":0,"byteOffset":3102724,"byteLength":509216,"byteStride":8,"name":"bufferViewFloatVec2"}],"buffers":[{"uri":"Road_Tex.bin","byteLength":3611940}],"materials":[{"pbrMetallicRoughness":{"baseColorTexture":{"index":0},"metallicFactor":0.0,"roughnessFactor":0.8412017},"name":"aiStandardSurface2"},{"pbrMetallicRoughness":{"baseColorTexture":{"index":1},"metallicFactor":0.0,"roughnessFactor":0.901287556},"name":"aiStandardSurface1"},{"pbrMetallicRoughness":{"baseColorTexture":{"index":2},"metallicFactor":0.0,"roughnessFactor":0.5343348},"name":"aiStandardSurface3"},{"pbrMetallicRoughness":{"baseColorTexture":{"index":3},"metallicFactor":0.0,"roughnessFactor":0.2},"name":"aiStandardSurface5"},{"pbrMetallicRoughness":{"baseColorTexture":{"index":4},"metallicFactor":0.0,"roughnessFactor":0.2},"name":"aiStandardSurface4"},{"pbrMetallicRoughness":{"baseColorTexture":{"index":5},"metallicFactor":0.0,"roughnessFactor":0.450053632},"name":"lambert15"}],"textures":[{"sampler":0,"source":0,"name":"Ground_Base_color.png"},{"sampler":0,"source":1,"name":"Road_Base_color.png"},{"sampler":0,"source":2,"name":"Object1_Base_color.png"},{"sampler":0,"source":3,"name":"lambert3SG_Base_Color.png"},{"sampler":0,"source":4,"name":"Chair_Base_color.png"},{"sampler":0,"source":5,"name":"Snow.png"}],"images":[{"uri":"Ground_Base_color.png"},{"uri":"Road_Base_color.png"},{"uri":"Object1_Base_color.png"},{"uri":"lambert3SG_Base_Color.png"},{"uri":"Chair_Base_color.png"},{"uri":"Snow.png"}],"samplers":[{"magFilter":9729,"minFilter":9987}]}