{
	"asset":{
		"version":"2.0",
		"generator":"Houdini GLTF 2.0 Exporter"
	},
	"accessors":[
		{
			"bufferView":0,
			"componentType":5125,
			"count":134772,
			"type":"SCALAR",
			"min":[0
			],
			"max":[33019
			]
		},
		{
			"bufferView":1,
			"componentType":5126,
			"count":33020,
			"type":"VEC3",
			"min":[-0.999994695,-0.999999344,-1
			],
			"max":[0.999994636,1,1
			]
		},
		{
			"bufferView":2,
			"componentType":5126,
			"count":33020,
			"type":"VEC3",
			"min":[-1.14682698,0.0596335009,-2.96921706
			],
			"max":[1.14682698,1.26926112,3.06713009
			]
		},
		{
			"bufferView":3,
			"componentType":5123,
			"count":33020,
			"type":"VEC4",
			"min":[0,0,0,0
			],
			"max":[0,0,0,0
			]
		},
		{
			"bufferView":4,
			"componentType":5126,
			"count":33020,
			"type":"VEC4",
			"min":[1,0,0,0
			],
			"max":[1,0,0,0
			]
		},
		{
			"bufferView":5,
			"componentType":5126,
			"count":33020,
			"type":"VEC2",
			"min":[0,0
			],
			"max":[0.999915719,1
			]
		},
		{
			"bufferView":6,
			"componentType":5126,
			"count":1,
			"type":"MAT4",
			"min":[2.83276939e-14,0,-100,0,0,100,0,0,100,0,2.83276939e-14,0,0,-50.8797188,0,1
			],
			"max":[2.83276939e-14,0,-100,0,0,100,0,0,100,0,2.83276939e-14,0,0,-50.8797188,0,1
			]
		}
	],
	"buffers":[
		{
			"uri":"SailBoat_data.bin",
			"byteLength":2388272,
			"name":"main_buffer"
		}
	],
	"bufferViews":[
		{
			"buffer":0,
			"byteLength":539088,
			"target":34963
		},
		{
			"buffer":0,
			"byteOffset":539088,
			"byteLength":396240,
			"target":34962
		},
		{
			"buffer":0,
			"byteOffset":935328,
			"byteLength":396240,
			"target":34962
		},
		{
			"buffer":0,
			"byteOffset":1331568,
			"byteLength":264160,
			"target":34962
		},
		{
			"buffer":0,
			"byteOffset":1595728,
			"byteLength":528320,
			"target":34962
		},
		{
			"buffer":0,
			"byteOffset":2124048,
			"byteLength":264160,
			"target":34962
		},
		{
			"buffer":0,
			"byteOffset":2388208,
			"byteLength":64
		}
	],
	"nodes":[
		{
			"matrix":[2.83276934e-18,0,0.00999999978,0,0,0.00999999978,0,0,-0.00999999978,0,2.83276934e-18,0,0,0.508797169,0,1
			],
			"name":"joint2"
		},
		{
			"mesh":0,
			"skin":0
		}
	],
	"meshes":[
		{
			"primitives":[
				{
					"attributes":{
						"TEXCOORD_0":5,
						"WEIGHTS_0":4,
						"JOINTS_0":3,
						"POSITION":2,
						"NORMAL":1
					},
					"indices":0,
					"material":0
				}
			],
			"name":"blast1"
		}
	],
	"skins":[
		{
			"inverseBindMatrices":6,
			"skeleton":0,
			"joints":[0
			]
		}
	],
	"materials":[
		{
			"name":"principledshader1",
			"pbrMetallicRoughness":{
				"metallicFactor":0,
				"roughnessFactor":0.500000012,
				"baseColorTexture":{
					"index":0
				}
			},
			"normalTexture":{
				"index":1
			}
		}
	],
	"scenes":[
		{
			"nodes":[0,1
			]
		}
	],
	"textures":[
		{
			"source":0
		},
		{
			"source":1
		}
	],
	"images":[
		{
			"uri":"SailBoatTex_Base_color.png",
			"mimeType":"image/png"
		},
		{
			"uri":"SailBoatTex_Normal_OpenGL.png",
			"mimeType":"image/png"
		}
	],
	"scene":0
}
